  0
SECTION
  2
HEADER
  9
$ACADVER
  1
AC1015
  9
$ACADMAINTVER
 70
     6
  9
$DWGCODEPAGE
  3
ANSI_1252
  9
$INSBASE
 10
0.0
 20
0.0
 30
0.0
  9
$EXTMIN
 10
-3.5
 20
-3.5
 30
0.0
  9
$EXTMAX
 10
113.5
 20
73.5
 30
0.0
  9
$LIMMIN
 10
0.0
 20
0.0
  9
$LIMMAX
 10
420.0
 20
297.0
  9
$ORTHOMODE
 70
     0
  9
$REGENMODE
 70
     1
  9
$FILLMODE
 70
     1
  9
$QTEXTMODE
 70
     0
  9
$MIRRTEXT
 70
     1
  9
$LTSCALE
 40
1.0
  9
$ATTMODE
 70
     1
  9
$TEXTSIZE
 40
3.5
  9
$TRACEWID
 40
1.0
  9
$TEXTSTYLE
  7
Standard
  9
$CLAYER
  8
0
  9
$CELTYPE
  6
ByLayer
  9
$CECOLOR
 62
   256
  9
$CELTSCALE
 40
1.0
  9
$DISPSILH
 70
     0
  9
$DIMSCALE
 40
1.0
  9
$DIMASZ
 40
3.302
  9
$DIMEXO
 40
0.0
  9
$DIMDLI
 40
3.75
  9
$DIMRND
 40
0.0
  9
$DIMDLE
 40
0.0
  9
$DIMEXE
 40
1.0
  9
$DIMTP
 40
0.0
  9
$DIMTM
 40
0.0
  9
$DIMTXT
 40
3.5
  9
$DIMCEN
 40
2.5
  9
$DIMTSZ
 40
0.0
  9
$DIMTOL
 70
     0
  9
$DIMLIM
 70
     0
  9
$DIMTIH
 70
     1
  9
$DIMTOH
 70
     1
  9
$DIMSE1
 70
     0
  9
$DIMSE2
 70
     0
  9
$DIMTAD
 70
     1
  9
$DIMZIN
 70
     1
  9
$DIMBLK
  1

  9
$DIMASO
 70
     1
  9
$DIMSHO
 70
     1
  9
$DIMPOST
  1

  9
$DIMAPOST
  1

  9
$DIMALT
 70
     0
  9
$DIMALTD
 70
     3
  9
$DIMALTF
 40
0.0393700787
  9
$DIMLFAC
 40
1.0
  9
$DIMTOFL
 70
     1
  9
$DIMTVP
 40
0.0
  9
$DIMTIX
 70
     0
  9
$DIMSOXD
 70
     0
  9
$DIMSAH
 70
     0
  9
$DIMBLK1
  1

  9
$DIMBLK2
  1

  9
$DIMSTYLE
  2
ISO-25
  9
$DIMCLRD
 70
     0
  9
$DIMCLRE
 70
     0
  9
$DIMCLRT
 70
     0
  9
$DIMTFAC
 40
1.0
  9
$DIMGAP
 40
1.524
  9
$DIMJUST
 70
     0
  9
$DIMSD1
 70
     0
  9
$DIMSD2
 70
     0
  9
$DIMTOLJ
 70
     0
  9
$DIMTZIN
 70
     1
  9
$DIMALTZ
 70
     0
  9
$DIMALTTZ
 70
     0
  9
$DIMUPT
 70
     0
  9
$DIMDEC
 70
     2
  9
$DIMTDEC
 70
     2
  9
$DIMALTU
 70
     2
  9
$DIMALTTD
 70
     3
  9
$DIMTXSTY
  7
Standard
  9
$DIMAUNIT
 70
     0
  9
$DIMADEC
 70
     2
  9
$DIMALTRND
 40
0.0
  9
$DIMAZIN
 70
     0
  9
$DIMDSEP
 70
    44
  9
$DIMATFIT
 70
     3
  9
$DIMFRAC
 70
     0
  9
$DIMLDRBLK
  1

  9
$DIMLUNIT
 70
     2
  9
$DIMLWD
 70
    -2
  9
$DIMLWE
 70
    -2
  9
$DIMTMOVE
 70
     0
  9
$LUNITS
 70
     2
  9
$LUPREC
 70
     2
  9
$SKETCHINC
 40
1.0
  9
$FILLETRAD
 40
10.0
  9
$AUNITS
 70
     0
  9
$AUPREC
 70
     2
  9
$MENU
  1
.
  9
$ELEVATION
 40
0.0
  9
$PELEVATION
 40
0.0
  9
$THICKNESS
 40
0.0
  9
$LIMCHECK
 70
     0
  9
$CHAMFERA
 40
0.0
  9
$CHAMFERB
 40
0.0
  9
$CHAMFERC
 40
0.0
  9
$CHAMFERD
 40
0.0
  9
$SKPOLY
 70
     0
  9
$TDCREATE
 40
2460090.28519272
  9
$TDUCREATE
 40
2460090.056026053
  9
$TDUPDATE
 40
2460090.285290405
  9
$TDUUPDATE
 40
2460090.056123739
  9
$TDINDWG
 40
0.0000000116
  9
$TDUSRTIMER
 40
0.0000000116
  9
$USRTIMER
 70
     1
  9
$ANGBASE
 50
0.0
  9
$ANGDIR
 70
     0
  9
$PDMODE
 70
     0
  9
$PDSIZE
 40
-1.0
  9
$PLINEWID
 40
0.0
  9
$SPLFRAME
 70
     0
  9
$SPLINETYPE
 70
     6
  9
$SPLINESEGS
 70
     8
  9
$HANDSEED
  5
151
  9
$SURFTAB1
 70
     6
  9
$SURFTAB2
 70
     6
  9
$SURFTYPE
 70
     6
  9
$SURFU
 70
     6
  9
$SURFV
 70
     6
  9
$UCSBASE
  2

  9
$UCSNAME
  2

  9
$UCSORG
 10
0.0
 20
0.0
 30
0.0
  9
$UCSXDIR
 10
1.0
 20
0.0
 30
0.0
  9
$UCSYDIR
 10
0.0
 20
1.0
 30
0.0
  9
$UCSORTHOREF
  2

  9
$UCSORTHOVIEW
 70
     0
  9
$UCSORGTOP
 10
0.0
 20
0.0
 30
0.0
  9
$UCSORGBOTTOM
 10
0.0
 20
0.0
 30
0.0
  9
$UCSORGLEFT
 10
0.0
 20
0.0
 30
0.0
  9
$UCSORGRIGHT
 10
0.0
 20
0.0
 30
0.0
  9
$UCSORGFRONT
 10
0.0
 20
0.0
 30
0.0
  9
$UCSORGBACK
 10
0.0
 20
0.0
 30
0.0
  9
$PUCSBASE
  2

  9
$PUCSNAME
  2

  9
$PUCSORG
 10
0.0
 20
0.0
 30
0.0
  9
$PUCSXDIR
 10
1.0
 20
0.0
 30
0.0
  9
$PUCSYDIR
 10
0.0
 20
1.0
 30
0.0
  9
$PUCSORTHOREF
  2

  9
$PUCSORTHOVIEW
 70
     0
  9
$PUCSORGTOP
 10
0.0
 20
0.0
 30
0.0
  9
$PUCSORGBOTTOM
 10
0.0
 20
0.0
 30
0.0
  9
$PUCSORGLEFT
 10
0.0
 20
0.0
 30
0.0
  9
$PUCSORGRIGHT
 10
0.0
 20
0.0
 30
0.0
  9
$PUCSORGFRONT
 10
0.0
 20
0.0
 30
0.0
  9
$PUCSORGBACK
 10
0.0
 20
0.0
 30
0.0
  9
$USERI1
 70
     0
  9
$USERI2
 70
     0
  9
$USERI3
 70
     0
  9
$USERI4
 70
     0
  9
$USERI5
 70
     0
  9
$USERR1
 40
0.0
  9
$USERR2
 40
0.0
  9
$USERR3
 40
0.0
  9
$USERR4
 40
0.0
  9
$USERR5
 40
0.0
  9
$WORLDVIEW
 70
     1
  9
$SHADEDGE
 70
     3
  9
$SHADEDIF
 70
    70
  9
$TILEMODE
 70
     1
  9
$MAXACTVP
 70
    64
  9
$PINSBASE
 10
0.0
 20
0.0
 30
0.0
  9
$PLIMCHECK
 70
     0
  9
$PEXTMIN
 10
1.0000000000E+20
 20
1.0000000000E+20
 30
1.0000000000E+20
  9
$PEXTMAX
 10
-1.0000000000E+20
 20
-1.0000000000E+20
 30
-1.0000000000E+20
  9
$PLIMMIN
 10
0.0
 20
0.0
  9
$PLIMMAX
 10
420.0
 20
297.0
  9
$UNITMODE
 70
     0
  9
$VISRETAIN
 70
     1
  9
$PLINEGEN
 70
     0
  9
$PSLTSCALE
 70
     1
  9
$TREEDEPTH
 70
  3020
  9
$CMLSTYLE
  2
Standard
  9
$CMLJUST
 70
     0
  9
$CMLSCALE
 40
20.0
  9
$PROXYGRAPHICS
 70
     1
  9
$MEASUREMENT
 70
     1
  9
$CELWEIGHT
370
    -1
  9
$ENDCAPS
280
     0
  9
$JOINSTYLE
280
     0
  9
$LWDISPLAY
290
     1
  9
$INSUNITS
 70
     4
  9
$HYPERLINKBASE
  1

  9
$STYLESHEET
  1

  9
$XEDIT
290
     1
  9
$CEPSNTYPE
380
     0
  9
$PSTYLEMODE
290
     1
  9
$FINGERPRINTGUID
  2
{2abdac26-a903-4e39-a246-73c1736bbb6f}
  9
$VERSIONGUID
  2
{FAEB1C32-E019-11D5-929B-00C0DF256EC4}
  9
$EXTNAMES
290
     1
  9
$PSVPSCALE
 40
0.0
  9
$OLESTARTUP
290
     0
  0
ENDSEC
  0
SECTION
  2
CLASSES
  0
CLASS
  1
ACDBDICTIONARYWDFLT
  2
AcDbDictionaryWithDefault
  3
ObjectDBX Classes
 90
        0
280
     0
281
     0
  0
CLASS
  1
VISUALSTYLE
  2
AcDbVisualStyle
  3
ObjectDBX Classes
 90
     4095
280
     0
281
     0
  0
CLASS
  1
MATERIAL
  2
AcDbMaterial
  3
ObjectDBX Classes
 90
     1153
280
     0
281
     0
  0
CLASS
  1
SCALE
  2
AcDbScale
  3
ObjectDBX Classes
 90
     1153
280
     0
281
     0
  0
CLASS
  1
TABLESTYLE
  2
AcDbTableStyle
  3
ObjectDBX Classes
 90
     4095
280
     0
281
     0
  0
CLASS
  1
MLEADERSTYLE
  2
AcDbMLeaderStyle
  3
ACDB_MLEADERSTYLE_CLASS
 90
     4095
280
     0
281
     0
  0
CLASS
  1
SUN
  2
AcDbSun
  3
SCENEOE
 90
     1153
280
     0
281
     0
  0
CLASS
  1
ACDBPLACEHOLDER
  2
AcDbPlaceHolder
  3
ObjectDBX Classes
 90
        0
280
     0
281
     0
  0
CLASS
  1
LAYOUT
  2
AcDbLayout
  3
ObjectDBX Classes
 90
        0
280
     0
281
     0
  0
ENDSEC
  0
SECTION
  2
TABLES
  0
TABLE
  2
VPORT
  5
8
330
0
100
AcDbSymbolTable
 70
     1
  0
VPORT
  5
29
330
8
100
AcDbSymbolTableRecord
100
AcDbViewportTableRecord
  2
*Active
 70
     0
 10
0.0
 20
0.0
 11
1.0
 21
1.0
 12
55.0
 22
35.0
 13
0.0
 23
0.0
 14
10.0
 24
10.0
 15
10.0
 25
10.0
 16
0.0
 26
0.0
 36
1.0
 17
0.0
 27
0.0
 37
0.0
 40
78.54
 41
1.5194805195
 42
50.0
 43
0.0
 44
0.0
 50
0.0
 51
0.0
 71
     0
 72
   100
 73
     1
 74
     3
 75
     0
 76
     0
 77
     0
 78
     0
281
     0
 65
     1
110
0.0
120
0.0
130
0.0
111
1.0
121
0.0
131
0.0
112
0.0
122
1.0
132
0.0
 79
     0
146
0.0
  0
ENDTAB
  0
TABLE
  2
LTYPE
  5
5
330
0
100
AcDbSymbolTable
 70
     6
  0
LTYPE
  5
14
330
5
100
AcDbSymbolTableRecord
100
AcDbLinetypeTableRecord
  2
ByBlock
 70
     0
  3

 72
    65
 73
     0
 40
0.0
  0
LTYPE
  5
15
330
5
100
AcDbSymbolTableRecord
100
AcDbLinetypeTableRecord
  2
ByLayer
 70
     0
  3

 72
    65
 73
     0
 40
0.0
  0
LTYPE
  5
16
330
5
100
AcDbSymbolTableRecord
100
AcDbLinetypeTableRecord
  2
Continuous
 70
     0
  3
Solid line
 72
    65
 73
     0
 40
0.0
  0
LTYPE
  5
6E
330
5
100
AcDbSymbolTableRecord
100
AcDbLinetypeTableRecord
  2
HIDDEN
 70
     0
  3
Hidden __ __ __ __ __ __ __ __ __ __ __ __ __ __
 72
    65
 73
     2
 40
1.905
 49
1.27
 74
     0
 49
-0.635
 74
     0
  0
LTYPE
  5
6F
330
5
100
AcDbSymbolTableRecord
100
AcDbLinetypeTableRecord
  2
PHANTOM
 70
     0
  3
Phantom ______  __  __  ______  __  __  ______
 72
    65
 73
     6
 40
12.7
 49
6.35
 74
     0
 49
-1.27
 74
     0
 49
1.27
 74
     0
 49
-1.27
 74
     0
 49
1.27
 74
     0
 49
-1.27
 74
     0
  0
LTYPE
  5
70
330
5
100
AcDbSymbolTableRecord
100
AcDbLinetypeTableRecord
  2
CENTER
 70
     0
  3
Center ____ _ ____ _ ____ _ ____ _ ____ _ ____
 72
    65
 73
     4
 40
10.16
 49
6.35
 74
     0
 49
-1.27
 74
     0
 49
1.27
 74
     0
 49
-1.27
 74
     0
  0
LTYPE
  5
71
330
5
100
AcDbSymbolTableRecord
100
AcDbLinetypeTableRecord
  2
CENTERX2
 70
     0
  3
Center (2x) ________  __  ________  __  _____
 72
    65
 73
     4
 40
20.32
 49
12.7
 74
     0
 49
-2.54
 74
     0
 49
2.54
 74
     0
 49
-2.54
 74
     0
  0
LTYPE
  5
72
330
5
100
AcDbSymbolTableRecord
100
AcDbLinetypeTableRecord
  2
DOT2
 70
     0
  3
Dot (.5x) ........................................
 72
    65
 73
     2
 40
0.635
 49
0.0
 74
     0
 49
-0.635
 74
     0
  0
ENDTAB
  0
TABLE
  2
LAYER
  5
2
330
0
100
AcDbSymbolTable
 70
     1
  0
LAYER
  5
10
330
2
100
AcDbSymbolTableRecord
100
AcDbLayerTableRecord
  2
0
 70
     0
 62
     7
  6
Continuous
370
    -3
390
F
  0
ENDTAB
  0
TABLE
  2
STYLE
  5
3
330
0
100
AcDbSymbolTable
 70
     1
  0
STYLE
  5
11
330
3
100
AcDbSymbolTableRecord
100
AcDbTextStyleTableRecord
  2
Standard
 70
     0
 40
0.0
 41
1.0
 50
0.0
 71
     0
 42
3.5
  3
txt
  4

  0
ENDTAB
  0
TABLE
  2
VIEW
  5
6
330
0
100
AcDbSymbolTable
 70
     0
  0
ENDTAB
  0
TABLE
  2
UCS
  5
7
330
0
100
AcDbSymbolTable
 70
     0
  0
ENDTAB
  0
TABLE
  2
APPID
  5
9
330
0
100
AcDbSymbolTable
 70
     1
  0
APPID
  5
12
330
9
100
AcDbSymbolTableRecord
100
AcDbRegAppTableRecord
  2
ACAD
 70
     0
  0
ENDTAB
  0
TABLE
  2
DIMSTYLE
  5
A
330
0
100
AcDbSymbolTable
 70
     1
100
AcDbDimStyleTable
  0
DIMSTYLE
105
27
330
A
100
AcDbSymbolTableRecord
100
AcDbDimStyleTableRecord
  2
ISO-25
 70
     0
 41
2.5
 42
0.625
 43
3.75
 44
1.25
 73
     0
 74
     0
 77
     1
 78
     8
140
2.5
141
2.5
143
0.0393700787
147
0.625
171
     3
172
     1
178
     0
271
     2
272
     2
274
     3
278
    44
283
     0
284
     8
340
11
  0
ENDTAB
  0
TABLE
  2
BLOCK_RECORD
  5
1
330
0
100
AcDbSymbolTable
 70
     1
  0
BLOCK_RECORD
  5
1F
330
1
100
AcDbSymbolTableRecord
100
AcDbBlockTableRecord
  2
*Model_Space
340
22
  0
BLOCK_RECORD
  5
1B
330
1
100
AcDbSymbolTableRecord
100
AcDbBlockTableRecord
  2
*Paper_Space
340
1E
  0
BLOCK_RECORD
  5
23
330
1
100
AcDbSymbolTableRecord
100
AcDbBlockTableRecord
  2
*Paper_Space0
340
26
  0
ENDTAB
  0
ENDSEC
  0
SECTION
  2
BLOCKS
  0
BLOCK
  5
20
330
1F
100
AcDbEntity
  8
0
100
AcDbBlockBegin
  2
*Model_Space
 70
     0
 10
0.0
 20
0.0
 30
0.0
  3
*Model_Space
  1

  0
ENDBLK
  5
21
330
1F
100
AcDbEntity
  8
0
100
AcDbBlockEnd
  0
BLOCK
  5
1C
330
1B
100
AcDbEntity
 67
     1
  8
0
100
AcDbBlockBegin
  2
*Paper_Space
 70
     0
 10
0.0
 20
0.0
 30
0.0
  3
*Paper_Space
  1

  0
ENDBLK
  5
1D
330
1B
100
AcDbEntity
 67
     1
  8
0
100
AcDbBlockEnd
  0
BLOCK
  5
24
330
23
100
AcDbEntity
  8
0
100
AcDbBlockBegin
  2
*Paper_Space0
 70
     0
 10
0.0
 20
0.0
 30
0.0
  3
*Paper_Space0
  1

  0
ENDBLK
  5
25
330
23
100
AcDbEntity
  8
0
100
AcDbBlockEnd
  0
ENDSEC
  0
SECTION
  2
ENTITIES
  0
LWPOLYLINE
  5
73
330
1F
100
AcDbEntity
  8
0
  6
Continuous
 62
     7
100
AcDbPolyline
 90
       14
 70
   128
 43
0.0
 10
40.7361090183
 20
50.1527777778
 10
40.7361111111
 20
49.8863932292
 10
40.7361111111
 20
49.8863932292
 10
39.4427083333
 20
49.2673611111
 10
39.4427083333
 20
49.2673611111
 10
40.7361111111
 20
48.6483289931
 10
40.7361111111
 20
48.6483289931
 10
40.7361111111
 20
48.3819444444
 10
40.7361111111
 20
48.3819444444
 10
39.1388888889
 20
49.1458333333
 10
39.1388888889
 20
49.1458333333
 10
39.1388888889
 20
49.3888888889
 10
39.1388888889
 20
49.3888888889
 10
40.7361111111
 20
50.1527777778
  0
LWPOLYLINE
  5
74
330
1F
100
AcDbEntity
  8
0
  6
Continuous
 62
     7
100
AcDbPolyline
 90
       84
 70
   128
 43
0.0
 10
41.5347218513
 20
49.1111111111
 10
41.5347222222
 20
48.2001953125
 10
41.5347222222
 20
48.2001953125
 10
41.5363498264
 20
48.1741536458
 10
41.5406901042
 20
48.1513671875
 10
41.5477430556
 20
48.1323784722
 10
41.5575086806
 20
48.1161024306
 10
41.5710720486
 20
48.1025390625
 10
41.5895182292
 20
48.0900607639
 10
41.6117621528
 20
48.0792100694
 10
41.6388888889
 20
48.0694444444
 10
41.6388888889
 20
48.0694444444
 10
41.6388888889
 20
48.0
 10
41.6388888889
 20
48.0
 10
41.1527777778
 20
48.0
 10
41.1527777778
 20
48.0
 10
41.1527777778
 20
48.0694444444
 10
41.1527777778
 20
48.0694444444
 10
41.1799045139
 20
48.0792100694
 10
41.2026909722
 20
48.0900607639
 10
41.2205946181
 20
48.1025390625
 10
41.2341579861
 20
48.1161024306
 10
41.2439236111
 20
48.1323784722
 10
41.2515190972
 20
48.1524522569
 10
41.2553168403
 20
48.1752387153
 10
41.2569444444
 20
48.2018229167
 10
41.2569444444
 20
48.2018229167
 10
41.2569444444
 20
50.2998046875
 10
41.2569444444
 20
50.2998046875
 10
41.2553168403
 20
50.3258463542
 10
41.2515190972
 20
50.3480902778
 10
41.2439236111
 20
50.3676215278
 10
41.2341579861
 20
50.3833550347
 10
41.2205946181
 20
50.3974609375
 10
41.2026909722
 20
50.4099392361
 10
41.1799045139
 20
50.4207899306
 10
41.1527777778
 20
50.4305555556
 10
41.1527777778
 20
50.4305555556
 10
41.1527777778
 20
50.5
 10
41.1527777778
 20
50.5
 10
42.4575737847
 20
50.5
 10
42.4575737847
 20
50.5
 10
42.5872395833
 20
50.4983723958
 10
42.7017144097
 20
50.4924045139
 10
42.8004557292
 20
50.4831814236
 10
42.8845486111
 20
50.4701605903
 10
42.9588758681
 20
50.4522569444
 10
43.0294053819
 20
50.4289279514
 10
43.0955946181
 20
50.3990885417
 10
43.1574435764
 20
50.36328125
 10
43.1574435764
 20
50.36328125
 10
43.2171223958
 20
50.3209635417
 10
43.2708333333
 20
50.2715928819
 10
43.3180338542
 20
50.2146267361
 10
43.3592664931
 20
50.1506076389
 10
43.3592664931
 20
50.1506076389
 10
43.3967013889
 20
50.0724826389
 10
43.4232855903
 20
49.9894748264
 10
43.4390190972
 20
49.9021267361
 10
43.4444444444
 20
49.8104383681
 10
43.4444444444
 20
49.8104383681
 10
43.4417317708
 20
49.7469618056
 10
43.4346788194
 20
49.6856553819
 10
43.4222005208
 20
49.6265190972
 10
43.4048394097
 20
49.5695529514
 10
43.3825954861
 20
49.5152994792
 10
43.35546875
 20
49.4632161458
 10
43.3234592014
 20
49.4133029514
 10
43.2865668403
 20
49.3661024306
 10
43.2865668403
 20
49.3661024306
 10
43.2220052083
 20
49.3004557292
 10
43.1493055556
 20
49.2456597222
 10
43.0679253472
 20
49.201171875
 10
42.9789496528
 20
49.1675347222
 10
42.9295789931
 20
49.1545138889
 10
42.8758680556
 20
49.1431206597
 10
42.8167317708
 20
49.1333550347
 10
42.7527126736
 20
49.1252170139
 10
42.6838107639
 20
49.1192491319
 10
42.6100260417
 20
49.1149088542
 10
42.5308159722
 20
49.1121961806
 10
42.447265625
 20
49.1111111111
 10
42.447265625
 20
49.1111111111
 10
41.5347222222
 20
49.1111111111
  0
LWPOLYLINE
  5
75
330
1F
100
AcDbEntity
  8
0
  6
Continuous
 62
     7
100
AcDbPolyline
 90
       42
 70
   128
 43
0.0
 10
41.5347218513
 20
49.3541666667
 10
42.4608289931
 20
49.3541666667
 10
42.4608289931
 20
49.3541666667
 10
42.5574001736
 20
49.3552517361
 10
42.6404079861
 20
49.3585069444
 10
42.7103949653
 20
49.3633897569
 10
42.7673611111
 20
49.3704427083
 10
42.8161892361
 20
49.3807508681
 10
42.8628472222
 20
49.3948567708
 10
42.90625
 20
49.4133029514
 10
42.9474826389
 20
49.4350043403
 10
42.9474826389
 20
49.4350043403
 10
42.9908854167
 20
49.46484375
 10
43.0283203125
 20
49.4995659722
 10
43.0597873264
 20
49.5386284722
 10
43.0858289931
 20
49.5825737847
 10
43.1059027778
 20
49.630859375
 10
43.1205512153
 20
49.6840277778
 10
43.1292317708
 20
49.7420789931
 10
43.1319444444
 20
49.8044704861
 10
43.1319444444
 20
49.8044704861
 10
43.1292317708
 20
49.8674045139
 10
43.1205512153
 20
49.9259982639
 10
43.1059027778
 20
49.9791666667
 10
43.0858289931
 20
50.0279947917
 10
43.0597873264
 20
50.0724826389
 10
43.0283203125
 20
50.1115451389
 10
42.9908854167
 20
50.1462673611
 10
42.9474826389
 20
50.1761067708
 10
42.9474826389
 20
50.1761067708
 10
42.90625
 20
50.1978081597
 10
42.8628472222
 20
50.2162543403
 10
42.8167317708
 20
50.2298177083
 10
42.7679036458
 20
50.2401258681
 10
42.7114800347
 20
50.2477213542
 10
42.6414930556
 20
50.2526041667
 10
42.5579427083
 20
50.255859375
 10
42.4608289931
 20
50.2569444444
 10
42.4608289931
 20
50.2569444444
 10
41.5347222222
 20
50.2569444444
 10
41.5347222222
 20
50.2569444444
 10
41.5347222222
 20
49.3541666667
  0
LWPOLYLINE
  5
76
330
1F
100
AcDbEntity
  8
0
  6
Continuous
 62
     7
100
AcDbPolyline
 90
      100
 70
   128
 43
0.0
 10
45.280367136
 20
50.5347222222
 10
45.4415147569
 20
50.529296875
 10
45.5945095486
 20
50.5130208333
 10
45.7393663194
 20
50.4864366319
 10
45.8760850694
 20
50.4490017361
 10
46.0052083333
 20
50.4007161458
 10
46.1261935764
 20
50.3415798611
 10
46.2390407986
 20
50.2715928819
 10
46.3442925347
 20
50.1912977431
 10
46.3442925347
 20
50.1912977431
 10
46.3990885417
 20
50.1424696181
 10
46.4506293403
 20
50.0903862847
 10
46.4983723958
 20
50.0361328125
 10
46.5428602431
 20
49.9791666667
 10
46.5835503472
 20
49.9189453125
 10
46.6204427083
 20
49.8565538194
 10
46.6540798611
 20
49.7914496528
 10
46.6844618056
 20
49.7236328125
 10
46.6844618056
 20
49.7236328125
 10
46.7251519097
 20
49.6080729167
 10
46.7544487847
 20
49.4876302083
 10
46.7718098958
 20
49.3633897569
 10
46.7777777778
 20
49.2348090278
 10
46.7777777778
 20
49.2348090278
 10
46.7745225694
 20
49.1469184028
 10
46.7652994792
 20
49.0601128472
 10
46.7490234375
 20
48.9749348958
 10
46.7273220486
 20
48.8913845486
 10
46.6985677083
 20
48.8089192708
 10
46.6638454861
 20
48.7280815972
 10
46.6226128472
 20
48.6488715278
 10
46.5748697917
 20
48.5707465278
 10
46.5748697917
 20
48.5707465278
 10
46.5162760417
 20
48.48828125
 10
46.4522569444
 20
48.4117838542
 10
46.3833550347
 20
48.3412543403
 10
46.3084852431
 20
48.2766927083
 10
46.2281901042
 20
48.2180989583
 10
46.1424696181
 20
48.1654730903
 10
46.0513237847
 20
48.1188151042
 10
45.9547526042
 20
48.078125
 10
45.9547526042
 20
48.078125
 10
45.8793402778
 20
48.0515407986
 10
45.8017578125
 20
48.0287543403
 10
45.7214626736
 20
48.0092230903
 10
45.6389973958
 20
47.9934895833
 10
45.5538194444
 20
47.9810112847
 10
45.4659288194
 20
47.9723307292
 10
45.3758680556
 20
47.9669053819
 10
45.2836371528
 20
47.9652777778
 10
45.2836371528
 20
47.9652777778
 10
45.1235894097
 20
47.970703125
 10
44.9711371528
 20
47.9869791667
 10
44.8268229167
 20
48.0135633681
 10
44.6906467014
 20
48.0509982639
 10
44.5626085069
 20
48.0992838542
 10
44.4421657986
 20
48.1584201389
 10
44.3298611111
 20
48.2284071181
 10
44.2251519097
 20
48.3087022569
 10
44.2251519097
 20
48.3087022569
 10
44.1703559028
 20
48.3580729167
 10
44.1193576389
 20
48.41015625
 10
44.0716145833
 20
48.4649522569
 10
44.0276692708
 20
48.5224609375
 10
43.9869791667
 20
48.5821397569
 10
43.9495442708
 20
48.6439887153
 10
43.9153645833
 20
48.7090928819
 10
43.8849826389
 20
48.7763671875
 10
43.8849826389
 20
48.7763671875
 10
43.8442925347
 20
48.8902994792
 10
43.8149956597
 20
49.0074869792
 10
43.7976345486
 20
49.1279296875
 10
43.7916666667
 20
49.2510850694
 10
43.7916666667
 20
49.2510850694
 10
43.794921875
 20
49.3422309028
 10
43.8041449653
 20
49.4317491319
 10
43.8198784722
 20
49.5196397569
 10
43.8421223958
 20
49.6053602431
 10
43.8703342014
 20
49.689453125
 10
43.9050564236
 20
49.7719184028
 10
43.9457465278
 20
49.8522135417
 10
43.9929470486
 20
49.9308810764
 10
43.9929470486
 20
49.9308810764
 10
44.0504557292
 20
50.0122612847
 10
44.1139322917
 20
50.0876736111
 10
44.1833767361
 20
50.1576605903
 10
44.2582465278
 20
50.2216796875
 10
44.3385416667
 20
50.2802734375
 10
44.4248046875
 20
50.3334418403
 10
44.5170355903
 20
50.3806423611
 10
44.6146918403
 20
50.421875
 10
44.6146918403
 20
50.421875
 10
44.6868489583
 20
50.4473741319
 10
44.76171875
 20
50.4690755208
 10
44.8403862847
 20
50.4880642361
 10
44.9217664931
 20
50.5037977431
 10
45.0069444444
 20
50.5162760417
 10
45.0948350694
 20
50.5254991319
 10
45.1859809028
 20
50.5320095486
 10
45.2803819444
 20
50.5347222222
  0
LWPOLYLINE
  5
77
330
1F
100
AcDbEntity
  8
0
  6
Continuous
 62
     7
100
AcDbPolyline
 90
       73
 70
   128
 43
0.0
 10
45.280367136
 20
50.2916666667
 10
45.1452907986
 20
50.2867838542
 10
45.0172526042
 20
50.2721354167
 10
44.8962673611
 20
50.2471788194
 10
44.7828776042
 20
50.2129991319
 10
44.6765407986
 20
50.1685112847
 10
44.5772569444
 20
50.1148003472
 10
44.4855685764
 20
50.05078125
 10
44.4009331597
 20
49.9769965278
 10
44.4009331597
 20
49.9769965278
 10
44.3314887153
 20
49.9026692708
 10
44.2712673611
 20
49.8234592014
 10
44.2202690972
 20
49.7393663194
 10
44.1784939236
 20
49.6509331597
 10
44.1459418403
 20
49.5581597222
 10
44.1226128472
 20
49.4605034722
 10
44.1090494792
 20
49.3579644097
 10
44.1041666667
 20
49.2510850694
 10
44.1041666667
 20
49.2510850694
 10
44.1090494792
 20
49.1436631944
 10
44.1226128472
 20
49.0411241319
 10
44.1459418403
 20
48.9429253472
 10
44.1784939236
 20
48.849609375
 10
44.2202690972
 20
48.7611762153
 10
44.2712673611
 20
48.6770833333
 10
44.3314887153
 20
48.5978732639
 10
44.4009331597
 20
48.5230034722
 10
44.4009331597
 20
48.5230034722
 10
44.4850260417
 20
48.44921875
 10
44.5767144097
 20
48.3851996528
 10
44.6759982639
 20
48.3314887153
 10
44.7828776042
 20
48.2870008681
 10
44.8968098958
 20
48.2528211806
 10
45.0183376736
 20
48.2278645833
 10
45.1474609375
 20
48.2132161458
 10
45.2836371528
 20
48.2083333333
 10
45.2836371528
 20
48.2083333333
 10
45.4203559028
 20
48.2132161458
 10
45.5500217014
 20
48.2278645833
 10
45.6720920139
 20
48.2528211806
 10
45.7865668403
 20
48.2870008681
 10
45.8934461806
 20
48.3314887153
 10
45.9932725694
 20
48.3851996528
 10
46.0855034722
 20
48.44921875
 10
46.1701388889
 20
48.5230034722
 10
46.1701388889
 20
48.5230034722
 10
46.2395833333
 20
48.5973307292
 10
46.2992621528
 20
48.6759982639
 10
46.3502604167
 20
48.7590060764
 10
46.3914930556
 20
48.8458116319
 10
46.4240451389
 20
48.9375
 10
46.4468315972
 20
49.0329861111
 10
46.4609375
 20
49.1322699653
 10
46.4652777778
 20
49.2364366319
 10
46.4652777778
 20
49.2364366319
 10
46.4609375
 20
49.3481987847
 10
46.4468315972
 20
49.455078125
 10
46.4240451389
 20
49.5559895833
 10
46.3914930556
 20
49.6509331597
 10
46.3502604167
 20
49.7409939236
 10
46.2992621528
 20
49.8250868056
 10
46.2395833333
 20
49.9037543403
 10
46.1701388889
 20
49.9769965278
 10
46.1701388889
 20
49.9769965278
 10
46.080078125
 20
50.0545789931
 10
45.9867621528
 20
50.1202256944
 10
45.8901909722
 20
50.1728515625
 10
45.7903645833
 20
50.2129991319
 10
45.7903645833
 20
50.2129991319
 10
45.6742621528
 20
50.2466362847
 10
45.5511067708
 20
50.2710503472
 10
45.4192708333
 20
50.2862413194
 10
45.2803819444
 20
50.2916666667
  0
LWPOLYLINE
  5
78
330
1F
100
AcDbEntity
  8
0
  6
Continuous
 62
     7
100
AcDbPolyline
 90
      104
 70
   128
 43
0.0
 10
47.6458072662
 20
49.1111111111
 10
47.6458333333
 20
48.2229817708
 10
47.6458333333
 20
48.2229817708
 10
47.6469184028
 20
48.1888020833
 10
47.6512586806
 20
48.1600477431
 10
47.6577690972
 20
48.13671875
 10
47.6669921875
 20
48.1182725694
 10
47.6800130208
 20
48.1036241319
 10
47.6984592014
 20
48.0906032986
 10
47.7217881944
 20
48.0792100694
 10
47.75
 20
48.0694444444
 10
47.75
 20
48.0694444444
 10
47.75
 20
48.0
 10
47.75
 20
48.0
 10
47.2638888889
 20
48.0
 10
47.2638888889
 20
48.0
 10
47.2638888889
 20
48.0694444444
 10
47.2638888889
 20
48.0694444444
 10
47.2921006944
 20
48.0792100694
 10
47.3154296875
 20
48.0906032986
 10
47.3338758681
 20
48.1036241319
 10
47.3468967014
 20
48.1182725694
 10
47.3561197917
 20
48.13671875
 10
47.3626302083
 20
48.1605902778
 10
47.3669704861
 20
48.1904296875
 10
47.3680555556
 20
48.2256944444
 10
47.3680555556
 20
48.2256944444
 10
47.3680555556
 20
50.2743055556
 10
47.3680555556
 20
50.2743055556
 10
47.3669704861
 20
50.3095703125
 10
47.3626302083
 20
50.3394097222
 10
47.3561197917
 20
50.3638237847
 10
47.3468967014
 20
50.3822699653
 10
47.3338758681
 20
50.3974609375
 10
47.3154296875
 20
50.4104817708
 10
47.2921006944
 20
50.4213324653
 10
47.2638888889
 20
50.4305555556
 10
47.2638888889
 20
50.4305555556
 10
47.2638888889
 20
50.5
 10
47.2638888889
 20
50.5
 10
48.6381293403
 20
50.5
 10
48.6381293403
 20
50.5
 10
48.7715928819
 20
50.4978298611
 10
48.8909505208
 20
50.4924045139
 10
48.9951171875
 20
50.4826388889
 10
49.0846354167
 20
50.4690755208
 10
49.1643880208
 20
50.4506293403
 10
49.2381727431
 20
50.4267578125
 10
49.3070746528
 20
50.3969184028
 10
49.3700086806
 20
50.3616536458
 10
49.3700086806
 20
50.3616536458
 10
49.4296875
 20
50.3187934028
 10
49.4828559028
 20
50.2688802083
 10
49.5305989583
 20
50.2113715278
 10
49.5718315972
 20
50.1468098958
 10
49.5718315972
 20
50.1468098958
 10
49.6103515625
 20
50.0665147569
 10
49.6380208333
 20
49.9818793403
 10
49.654296875
 20
49.8918185764
 10
49.6597222222
 20
49.796875
 10
49.6597222222
 20
49.796875
 10
49.6570095486
 20
49.7258029514
 10
49.6477864583
 20
49.6579861111
 10
49.6331380208
 20
49.5934244792
 10
49.6119791667
 20
49.5321180556
 10
49.5853949653
 20
49.474609375
 10
49.5528428819
 20
49.4198133681
 10
49.5137803819
 20
49.3688151042
 10
49.4692925347
 20
49.3210720486
 10
49.4193793403
 20
49.2776692708
 10
49.3651258681
 20
49.2391493056
 10
49.3065321181
 20
49.2055121528
 10
49.2435980903
 20
49.1767578125
 10
49.17578125
 20
49.1528862847
 10
49.1036241319
 20
49.1338975694
 10
49.0271267361
 20
49.1203342014
 10
48.9462890625
 20
49.1111111111
 10
48.9462890625
 20
49.1111111111
 10
49.5680338542
 20
48.1589626736
 10
49.5680338542
 20
48.1589626736
 10
49.5989583333
 20
48.1199001736
 10
49.6358506944
 20
48.0916883681
 10
49.6792534722
 20
48.0748697917
 10
49.7291666667
 20
48.0694444444
 10
49.7291666667
 20
48.0694444444
 10
49.7291666667
 20
48.0
 10
49.7291666667
 20
48.0
 10
49.1931423611
 20
48.0
 10
49.1931423611
 20
48.0
 10
49.1931423611
 20
48.0694444444
 10
49.1931423611
 20
48.0694444444
 10
49.2300347222
 20
48.078125
 10
49.2566189236
 20
48.0889756944
 10
49.2723524306
 20
48.1030815972
 10
49.2777777778
 20
48.1193576389
 10
49.2777777778
 20
48.1193576389
 10
49.2739800347
 20
48.1334635417
 10
49.2631293403
 20
48.1573350694
 10
49.2446831597
 20
48.1915147569
 10
49.2186414931
 20
48.2354600694
 10
49.2186414931
 20
48.2354600694
 10
48.6560329861
 20
49.1111111111
 10
48.6560329861
 20
49.1111111111
 10
47.6458333333
 20
49.1111111111
  0
LWPOLYLINE
  5
79
330
1F
100
AcDbEntity
  8
0
  6
Continuous
 62
     7
100
AcDbPolyline
 90
       42
 70
   128
 43
0.0
 10
47.6458072662
 20
49.3541666667
 10
48.6598307292
 20
49.3541666667
 10
48.6598307292
 20
49.3541666667
 10
48.7569444444
 20
49.3552517361
 10
48.8415798611
 20
49.3585069444
 10
48.9131944444
 20
49.3639322917
 10
48.9723307292
 20
49.3715277778
 10
49.0233289931
 20
49.3818359375
 10
49.0716145833
 20
49.3959418403
 10
49.1166449653
 20
49.4138454861
 10
49.1584201389
 20
49.4350043403
 10
49.1584201389
 20
49.4350043403
 10
49.2029079861
 20
49.46484375
 10
49.2408854167
 20
49.4995659722
 10
49.2734375
 20
49.5386284722
 10
49.3000217014
 20
49.5825737847
 10
49.3206380208
 20
49.630859375
 10
49.3352864583
 20
49.6840277778
 10
49.3445095486
 20
49.7420789931
 10
49.3472222222
 20
49.8044704861
 10
49.3472222222
 20
49.8044704861
 10
49.3439670139
 20
49.8674045139
 10
49.3352864583
 20
49.9259982639
 10
49.3200954861
 20
49.9791666667
 10
49.2989366319
 20
50.0279947917
 10
49.2712673611
 20
50.0724826389
 10
49.2381727431
 20
50.1115451389
 10
49.1985677083
 20
50.1462673611
 10
49.1529947917
 20
50.1761067708
 10
49.1529947917
 20
50.1761067708
 10
49.1085069444
 20
50.1978081597
 10
49.0618489583
 20
50.2162543403
 10
49.0124782986
 20
50.2298177083
 10
48.9609375
 20
50.2401258681
 10
48.9012586806
 20
50.2477213542
 10
48.8263888889
 20
50.2526041667
 10
48.7374131944
 20
50.255859375
 10
48.6337890625
 20
50.2569444444
 10
48.6337890625
 20
50.2569444444
 10
47.6458333333
 20
50.2569444444
 10
47.6458333333
 20
50.2569444444
 10
47.6458333333
 20
49.3541666667
  0
LWPOLYLINE
  5
7A
330
1F
100
AcDbEntity
  8
0
  6
Continuous
 62
     7
100
AcDbPolyline
 90
       82
 70
   128
 43
0.0
 10
51.222205162
 20
50.2569444444
 10
51.2222222222
 20
48.2256944444
 10
51.2222222222
 20
48.2256944444
 10
51.2233072917
 20
48.1909722222
 10
51.2276475694
 20
48.1622178819
 10
51.2341579861
 20
48.1378038194
 10
51.2433810764
 20
48.1193576389
 10
51.2564019097
 20
48.1047092014
 10
51.2748480903
 20
48.0911458333
 10
51.2981770833
 20
48.0797526042
 10
51.3263888889
 20
48.0694444444
 10
51.3263888889
 20
48.0694444444
 10
51.3263888889
 20
48.0
 10
51.3263888889
 20
48.0
 10
50.8402777778
 20
48.0
 10
50.8402777778
 20
48.0
 10
50.8402777778
 20
48.0694444444
 10
50.8402777778
 20
48.0694444444
 10
50.8684895833
 20
48.0792100694
 10
50.8918185764
 20
48.0911458333
 10
50.9102647569
 20
48.1036241319
 10
50.9232855903
 20
48.1182725694
 10
50.9325086806
 20
48.13671875
 10
50.9390190972
 20
48.1605902778
 10
50.943359375
 20
48.1904296875
 10
50.9444444444
 20
48.2256944444
 10
50.9444444444
 20
48.2256944444
 10
50.9444444444
 20
50.2569444444
 10
50.9444444444
 20
50.2569444444
 10
50.0953776042
 20
50.2569444444
 10
50.0953776042
 20
50.2569444444
 10
50.0595703125
 20
50.255859375
 10
50.0297309028
 20
50.2520616319
 10
50.0047743056
 20
50.2455512153
 10
49.9857855903
 20
50.236328125
 10
49.9705946181
 20
50.2233072917
 10
49.9575737847
 20
50.2054036458
 10
49.9467230903
 20
50.1815321181
 10
49.9375
 20
50.1527777778
 10
49.9375
 20
50.1527777778
 10
49.8680555556
 20
50.1527777778
 10
49.8680555556
 20
50.1527777778
 10
49.8680555556
 20
50.6041666667
 10
49.8680555556
 20
50.6041666667
 10
49.9375
 20
50.6041666667
 10
49.9375
 20
50.6041666667
 10
49.9467230903
 20
50.5754123264
 10
49.9575737847
 20
50.5520833333
 10
49.9705946181
 20
50.5336371528
 10
49.9857855903
 20
50.5206163194
 10
50.0047743056
 20
50.5113932292
 10
50.0291883681
 20
50.5054253472
 10
50.0590277778
 20
50.5010850694
 10
50.0948350694
 20
50.5
 10
50.0948350694
 20
50.5
 10
52.0718315972
 20
50.5
 10
52.0718315972
 20
50.5
 10
52.1076388889
 20
50.5010850694
 10
52.1374782986
 20
50.5054253472
 10
52.1618923611
 20
50.5113932292
 10
52.1808810764
 20
50.5206163194
 10
52.1960720486
 20
50.5336371528
 10
52.2090928819
 20
50.5520833333
 10
52.2199435764
 20
50.5754123264
 10
52.2291666667
 20
50.6041666667
 10
52.2291666667
 20
50.6041666667
 10
52.2986111111
 20
50.6041666667
 10
52.2986111111
 20
50.6041666667
 10
52.2986111111
 20
50.1527777778
 10
52.2986111111
 20
50.1527777778
 10
52.2291666667
 20
50.1527777778
 10
52.2291666667
 20
50.1527777778
 10
52.2199435764
 20
50.1815321181
 10
52.2090928819
 20
50.2054036458
 10
52.1955295139
 20
50.2233072917
 10
52.1803385417
 20
50.236328125
 10
52.1613498264
 20
50.2455512153
 10
52.1369357639
 20
50.2520616319
 10
52.1070963542
 20
50.255859375
 10
52.0712890625
 20
50.2569444444
 10
52.0712890625
 20
50.2569444444
 10
51.2222222222
 20
50.2569444444
  0
LWPOLYLINE
  5
7B
330
1F
100
AcDbEntity
  8
0
  6
Continuous
 62
     7
100
AcDbPolyline
 90
      112
 70
   128
 43
0.0
 10
53.0277490616
 20
49.1805555556
 10
53.0277777778
 20
48.2430555556
 10
53.0277777778
 20
48.2430555556
 10
54.6401909722
 20
48.2430555556
 10
54.6401909722
 20
48.2430555556
 10
54.6759982639
 20
48.244140625
 10
54.7063802083
 20
48.2484809028
 10
54.7307942708
 20
48.2549913194
 10
54.7497829861
 20
48.2642144097
 10
54.7649739583
 20
48.2772352431
 10
54.7779947917
 20
48.2956814236
 10
54.7893880208
 20
48.3190104167
 10
54.7986111111
 20
48.3472222222
 10
54.7986111111
 20
48.3472222222
 10
54.8680555556
 20
48.3472222222
 10
54.8680555556
 20
48.3472222222
 10
54.8680555556
 20
47.8958333333
 10
54.8680555556
 20
47.8958333333
 10
54.7986111111
 20
47.8958333333
 10
54.7986111111
 20
47.8958333333
 10
54.7883029514
 20
47.9240451389
 10
54.7769097222
 20
47.9473741319
 10
54.7633463542
 20
47.9658203125
 10
54.7481553819
 20
47.9788411458
 10
54.7297092014
 20
47.9880642361
 10
54.7052951389
 20
47.9945746528
 10
54.6754557292
 20
47.9989149306
 10
54.6401909722
 20
48.0
 10
54.6401909722
 20
48.0
 10
52.6458333333
 20
48.0
 10
52.6458333333
 20
48.0
 10
52.6458333333
 20
48.0694444444
 10
52.6458333333
 20
48.0694444444
 10
52.6751302083
 20
48.0792100694
 10
52.6984592014
 20
48.0906032986
 10
52.7169053819
 20
48.1036241319
 10
52.7293836806
 20
48.1182725694
 10
52.7386067708
 20
48.13671875
 10
52.7451171875
 20
48.1605902778
 10
52.7489149306
 20
48.1904296875
 10
52.75
 20
48.2256944444
 10
52.75
 20
48.2256944444
 10
52.75
 20
50.2743055556
 10
52.75
 20
50.2743055556
 10
52.7489149306
 20
50.3095703125
 10
52.7445746528
 20
50.3394097222
 10
52.7380642361
 20
50.36328125
 10
52.7288411458
 20
50.3817274306
 10
52.7158203125
 20
50.3963758681
 10
52.6973741319
 20
50.4093967014
 10
52.6740451389
 20
50.4207899306
 10
52.6458333333
 20
50.4305555556
 10
52.6458333333
 20
50.4305555556
 10
52.6458333333
 20
50.5
 10
52.6458333333
 20
50.5
 10
54.6081814236
 20
50.5
 10
54.6081814236
 20
50.5
 10
54.6434461806
 20
50.5010850694
 10
54.6727430556
 20
50.5054253472
 10
54.6966145833
 20
50.5113932292
 10
54.7150607639
 20
50.5206163194
 10
54.7297092014
 20
50.5336371528
 10
54.7427300347
 20
50.5520833333
 10
54.7541232639
 20
50.5754123264
 10
54.7638888889
 20
50.6041666667
 10
54.7638888889
 20
50.6041666667
 10
54.8333333333
 20
50.6041666667
 10
54.8333333333
 20
50.6041666667
 10
54.8333333333
 20
50.1527777778
 10
54.8333333333
 20
50.1527777778
 10
54.7638888889
 20
50.1527777778
 10
54.7638888889
 20
50.1527777778
 10
54.7546657986
 20
50.1809895833
 10
54.7438151042
 20
50.2043185764
 10
54.7302517361
 20
50.2222222222
 10
54.7150607639
 20
50.2352430556
 10
54.6960720486
 20
50.2450086806
 10
54.6722005208
 20
50.2515190972
 10
54.6418185764
 20
50.255859375
 10
54.6065538194
 20
50.2569444444
 10
54.6065538194
 20
50.2569444444
 10
53.0277777778
 20
50.2569444444
 10
53.0277777778
 20
50.2569444444
 10
53.0277777778
 20
49.4236111111
 10
53.0277777778
 20
49.4236111111
 10
54.0526258681
 20
49.4236111111
 10
54.0526258681
 20
49.4236111111
 10
54.087890625
 20
49.4246961806
 10
54.1177300347
 20
49.4290364583
 10
54.1416015625
 20
49.435546875
 10
54.1600477431
 20
49.4447699653
 10
54.1752387153
 20
49.4577907986
 10
54.1882595486
 20
49.4762369792
 10
54.1991102431
 20
49.4995659722
 10
54.2083333333
 20
49.5277777778
 10
54.2083333333
 20
49.5277777778
 10
54.2777777778
 20
49.5277777778
 10
54.2777777778
 20
49.5277777778
 10
54.2777777778
 20
49.0763888889
 10
54.2777777778
 20
49.0763888889
 10
54.2083333333
 20
49.0763888889
 10
54.2083333333
 20
49.0763888889
 10
54.1991102431
 20
49.1046006944
 10
54.1882595486
 20
49.1279296875
 10
54.1752387153
 20
49.1463758681
 10
54.1600477431
 20
49.1593967014
 10
54.1416015625
 20
49.1686197917
 10
54.1177300347
 20
49.1751302083
 10
54.087890625
 20
49.1794704861
 10
54.0526258681
 20
49.1805555556
 10
54.0526258681
 20
49.1805555556
 10
53.0277777778
 20
49.1805555556
  0
LWPOLYLINE
  5
7C
330
1F
100
AcDbEntity
  8
0
  6
Continuous
 62
     7
100
AcDbPolyline
 90
      110
 70
   128
 43
0.0
 10
55.7360947132
 20
50.1744791667
 10
55.7361111111
 20
48.2256944444
 10
55.7361111111
 20
48.2256944444
 10
55.7371961806
 20
48.1909722222
 10
55.7415364583
 20
48.1622178819
 10
55.748046875
 20
48.1378038194
 10
55.7572699653
 20
48.1193576389
 10
55.7702907986
 20
48.1041666667
 10
55.7887369792
 20
48.0911458333
 10
55.8120659722
 20
48.0792100694
 10
55.8402777778
 20
48.0694444444
 10
55.8402777778
 20
48.0694444444
 10
55.8402777778
 20
48.0
 10
55.8402777778
 20
48.0
 10
55.3541666667
 20
48.0
 10
55.3541666667
 20
48.0
 10
55.3541666667
 20
48.0694444444
 10
55.3541666667
 20
48.0694444444
 10
55.3834635417
 20
48.0792100694
 10
55.4067925347
 20
48.0906032986
 10
55.4252387153
 20
48.1036241319
 10
55.4377170139
 20
48.1182725694
 10
55.4469401042
 20
48.13671875
 10
55.4534505208
 20
48.1605902778
 10
55.4572482639
 20
48.1904296875
 10
55.4583333333
 20
48.2256944444
 10
55.4583333333
 20
48.2256944444
 10
55.4583333333
 20
50.2743055556
 10
55.4583333333
 20
50.2743055556
 10
55.4572482639
 20
50.3095703125
 10
55.4529079861
 20
50.3394097222
 10
55.4463975694
 20
50.3638237847
 10
55.4371744792
 20
50.3822699653
 10
55.4241536458
 20
50.3974609375
 10
55.4057074653
 20
50.4104817708
 10
55.3823784722
 20
50.4213324653
 10
55.3541666667
 20
50.4305555556
 10
55.3541666667
 20
50.4305555556
 10
55.3541666667
 20
50.5
 10
55.3541666667
 20
50.5
 10
56.0741102431
 20
50.5
 10
56.0741102431
 20
50.5
 10
56.0741102431
 20
50.4305555556
 10
56.0741102431
 20
50.4305555556
 10
56.0361328125
 20
50.4148220486
 10
56.0095486111
 20
50.3958333333
 10
55.9932725694
 20
50.3741319444
 10
55.9878472222
 20
50.3491753472
 10
55.9878472222
 20
50.3491753472
 10
55.9932725694
 20
50.3269314236
 10
56.0095486111
 20
50.2970920139
 10
56.0361328125
 20
50.2591145833
 10
56.0741102431
 20
50.2129991319
 10
56.0741102431
 20
50.2129991319
 10
57.5763888889
 20
48.4671223958
 10
57.5763888889
 20
48.4671223958
 10
57.5763888889
 20
50.2743055556
 10
57.5763888889
 20
50.2743055556
 10
57.5753038194
 20
50.3095703125
 10
57.5709635417
 20
50.3394097222
 10
57.564453125
 20
50.3638237847
 10
57.5552300347
 20
50.3822699653
 10
57.5422092014
 20
50.3974609375
 10
57.5237630208
 20
50.4104817708
 10
57.5004340278
 20
50.4213324653
 10
57.4722222222
 20
50.4305555556
 10
57.4722222222
 20
50.4305555556
 10
57.4722222222
 20
50.5
 10
57.4722222222
 20
50.5
 10
57.9583333333
 20
50.5
 10
57.9583333333
 20
50.5
 10
57.9583333333
 20
50.4305555556
 10
57.9583333333
 20
50.4305555556
 10
57.9301215278
 20
50.4213324653
 10
57.9067925347
 20
50.4104817708
 10
57.8883463542
 20
50.3974609375
 10
57.8753255208
 20
50.3822699653
 10
57.8661024306
 20
50.3638237847
 10
57.8595920139
 20
50.3394097222
 10
57.8552517361
 20
50.3095703125
 10
57.8541666667
 20
50.2743055556
 10
57.8541666667
 20
50.2743055556
 10
57.8541666667
 20
48.2256944444
 10
57.8541666667
 20
48.2256944444
 10
57.8552517361
 20
48.1904296875
 10
57.8595920139
 20
48.1605902778
 10
57.8661024306
 20
48.13671875
 10
57.8753255208
 20
48.1182725694
 10
57.8883463542
 20
48.1036241319
 10
57.9067925347
 20
48.0906032986
 10
57.9301215278
 20
48.0792100694
 10
57.9583333333
 20
48.0694444444
 10
57.9583333333
 20
48.0694444444
 10
57.9583333333
 20
48.0
 10
57.9583333333
 20
48.0
 10
57.37890625
 20
48.0
 10
57.37890625
 20
48.0
 10
57.37890625
 20
48.0694444444
 10
57.37890625
 20
48.0694444444
 10
57.4157986111
 20
48.0824652778
 10
57.4423828125
 20
48.0987413194
 10
57.4581163194
 20
48.1193576389
 10
57.4635416667
 20
48.1437717014
 10
57.4635416667
 20
48.1437717014
 10
57.4586588542
 20
48.1671006944
 10
57.4445529514
 20
48.1963975694
 10
57.4201388889
 20
48.2322048611
 10
57.3865017361
 20
48.2745225694
 10
57.3865017361
 20
48.2745225694
 10
55.7361111111
 20
50.1744791667
  0
LWPOLYLINE
  5
7D
330
1F
100
AcDbEntity
  8
0
  6
Continuous
 62
     7
100
AcDbPolyline
 90
       82
 70
   128
 43
0.0
 10
59.5902502537
 20
50.2569444444
 10
59.5902777778
 20
48.2256944444
 10
59.5902777778
 20
48.2256944444
 10
59.5913628472
 20
48.1909722222
 10
59.595703125
 20
48.1622178819
 10
59.6022135417
 20
48.1378038194
 10
59.6114366319
 20
48.1193576389
 10
59.6244574653
 20
48.1047092014
 10
59.6429036458
 20
48.0911458333
 10
59.6662326389
 20
48.0797526042
 10
59.6944444444
 20
48.0694444444
 10
59.6944444444
 20
48.0694444444
 10
59.6944444444
 20
48.0
 10
59.6944444444
 20
48.0
 10
59.2083333333
 20
48.0
 10
59.2083333333
 20
48.0
 10
59.2083333333
 20
48.0694444444
 10
59.2083333333
 20
48.0694444444
 10
59.2365451389
 20
48.0792100694
 10
59.2598741319
 20
48.0911458333
 10
59.2783203125
 20
48.1036241319
 10
59.2913411458
 20
48.1182725694
 10
59.3005642361
 20
48.13671875
 10
59.3070746528
 20
48.1605902778
 10
59.3114149306
 20
48.1904296875
 10
59.3125
 20
48.2256944444
 10
59.3125
 20
48.2256944444
 10
59.3125
 20
50.2569444444
 10
59.3125
 20
50.2569444444
 10
58.4634331597
 20
50.2569444444
 10
58.4634331597
 20
50.2569444444
 10
58.4276258681
 20
50.255859375
 10
58.3977864583
 20
50.2520616319
 10
58.3728298611
 20
50.2455512153
 10
58.3538411458
 20
50.236328125
 10
58.3386501736
 20
50.2233072917
 10
58.3256293403
 20
50.2054036458
 10
58.3147786458
 20
50.1815321181
 10
58.3055555556
 20
50.1527777778
 10
58.3055555556
 20
50.1527777778
 10
58.2361111111
 20
50.1527777778
 10
58.2361111111
 20
50.1527777778
 10
58.2361111111
 20
50.6041666667
 10
58.2361111111
 20
50.6041666667
 10
58.3055555556
 20
50.6041666667
 10
58.3055555556
 20
50.6041666667
 10
58.3147786458
 20
50.5754123264
 10
58.3256293403
 20
50.5520833333
 10
58.3386501736
 20
50.5336371528
 10
58.3538411458
 20
50.5206163194
 10
58.3728298611
 20
50.5113932292
 10
58.3972439236
 20
50.5054253472
 10
58.4270833333
 20
50.5010850694
 10
58.462890625
 20
50.5
 10
58.462890625
 20
50.5
 10
60.4398871528
 20
50.5
 10
60.4398871528
 20
50.5
 10
60.4756944444
 20
50.5010850694
 10
60.5055338542
 20
50.5054253472
 10
60.5299479167
 20
50.5113932292
 10
60.5489366319
 20
50.5206163194
 10
60.5641276042
 20
50.5336371528
 10
60.5771484375
 20
50.5520833333
 10
60.5879991319
 20
50.5754123264
 10
60.5972222222
 20
50.6041666667
 10
60.5972222222
 20
50.6041666667
 10
60.6666666667
 20
50.6041666667
 10
60.6666666667
 20
50.6041666667
 10
60.6666666667
 20
50.1527777778
 10
60.6666666667
 20
50.1527777778
 10
60.5972222222
 20
50.1527777778
 10
60.5972222222
 20
50.1527777778
 10
60.5879991319
 20
50.1815321181
 10
60.5771484375
 20
50.2054036458
 10
60.5635850694
 20
50.2233072917
 10
60.5483940972
 20
50.236328125
 10
60.5294053819
 20
50.2455512153
 10
60.5049913194
 20
50.2520616319
 10
60.4751519097
 20
50.255859375
 10
60.4393446181
 20
50.2569444444
 10
60.4393446181
 20
50.2569444444
 10
59.5902777778
 20
50.2569444444
  0
LWPOLYLINE
  5
7E
330
1F
100
AcDbEntity
  8
0
  6
Continuous
 62
     7
100
AcDbPolyline
 90
       90
 70
   128
 43
0.0
 10
62.7960562706
 20
48.6944444444
 10
61.4050564236
 20
48.6944444444
 10
61.4050564236
 20
48.6944444444
 10
61.1864149306
 20
48.2332899306
 10
61.1864149306
 20
48.2332899306
 10
61.1728515625
 20
48.2029079861
 10
61.1630859375
 20
48.1774088542
 10
61.1571180556
 20
48.15625
 10
61.1549479167
 20
48.1405164931
 10
61.1549479167
 20
48.1405164931
 10
61.1625434028
 20
48.1161024306
 10
61.1847873264
 20
48.0960286458
 10
61.2222222222
 20
48.0808376736
 10
61.2743055556
 20
48.0694444444
 10
61.2743055556
 20
48.0694444444
 10
61.2743055556
 20
48.0
 10
61.2743055556
 20
48.0
 10
60.7361111111
 20
48.0
 10
60.7361111111
 20
48.0
 10
60.7361111111
 20
48.0694444444
 10
60.7361111111
 20
48.0694444444
 10
60.7713758681
 20
48.0775824653
 10
60.8023003472
 20
48.0895182292
 10
60.8288845486
 20
48.1047092014
 10
60.8505859375
 20
48.1236979167
 10
60.8717447917
 20
48.1508246528
 10
60.8967013889
 20
48.1898871528
 10
60.923828125
 20
48.2414279514
 10
60.9547526042
 20
48.3054470486
 10
60.9547526042
 20
48.3054470486
 10
61.8727213542
 20
50.2634548611
 10
61.8727213542
 20
50.2634548611
 10
61.8873697917
 20
50.2960069444
 10
61.8976779514
 20
50.3231336806
 10
61.9036458333
 20
50.3442925347
 10
61.9058159722
 20
50.3594835069
 10
61.9058159722
 20
50.3594835069
 10
61.900390625
 20
50.3817274306
 10
61.8835720486
 20
50.4007161458
 10
61.8553602431
 20
50.4169921875
 10
61.8162977431
 20
50.4305555556
 10
61.8162977431
 20
50.4305555556
 10
61.8162977431
 20
50.5
 10
61.8162977431
 20
50.5
 10
62.4250217014
 20
50.5
 10
62.4250217014
 20
50.5
 10
62.4250217014
 20
50.4305555556
 10
62.4250217014
 20
50.4305555556
 10
62.3859592014
 20
50.4148220486
 10
62.3577473958
 20
50.3969184028
 10
62.3409288194
 20
50.3763020833
 10
62.3355034722
 20
50.3540581597
 10
62.3355034722
 20
50.3540581597
 10
62.3376736111
 20
50.3410373264
 10
62.3436414931
 20
50.3215060764
 10
62.3539496528
 20
50.2960069444
 10
62.3685980903
 20
50.2634548611
 10
62.3685980903
 20
50.2634548611
 10
63.2491319444
 20
48.3759765625
 10
63.2491319444
 20
48.3759765625
 10
63.2724609375
 20
48.3266059028
 10
63.2936197917
 20
48.2826605903
 10
63.3131510417
 20
48.244140625
 10
63.3299696181
 20
48.2105034722
 10
63.3451605903
 20
48.1828342014
 10
63.3581814236
 20
48.1600477431
 10
63.3690321181
 20
48.1432291667
 10
63.3777126736
 20
48.1312934028
 10
63.3977864583
 20
48.1139322917
 10
63.4276258681
 20
48.09765625
 10
63.4661458333
 20
48.0830078125
 10
63.5138888889
 20
48.0694444444
 10
63.5138888889
 20
48.0694444444
 10
63.5138888889
 20
48.0
 10
63.5138888889
 20
48.0
 10
62.9409722222
 20
48.0
 10
62.9409722222
 20
48.0
 10
62.9409722222
 20
48.0694444444
 10
62.9409722222
 20
48.0694444444
 10
62.9849175347
 20
48.0797526042
 10
63.0158420139
 20
48.0960286458
 10
63.0348307292
 20
48.1188151042
 10
63.0407986111
 20
48.1475694444
 10
63.0407986111
 20
48.1475694444
 10
63.0380859375
 20
48.1654730903
 10
63.0304904514
 20
48.1898871528
 10
63.0180121528
 20
48.2208116319
 10
63.0001085069
 20
48.2582465278
 10
63.0001085069
 20
48.2582465278
 10
62.7961154514
 20
48.6944444444
  0
LWPOLYLINE
  5
7F
330
1F
100
AcDbEntity
  8
0
  6
Continuous
 62
     7
100
AcDbPolyline
 90
        6
 70
   128
 43
0.0
 10
62.6865029335
 20
48.9375
 10
62.1005859375
 20
50.2064887153
 10
62.1005859375
 20
50.2064887153
 10
61.5151909722
 20
48.9375
 10
61.5151909722
 20
48.9375
 10
62.6865234375
 20
48.9375
  0
LWPOLYLINE
  5
80
330
1F
100
AcDbEntity
  8
0
  6
Continuous
 62
     7
100
AcDbPolyline
 90
       84
 70
   128
 43
0.0
 10
65.1111006737
 20
49.1111111111
 10
65.1111111111
 20
48.2001953125
 10
65.1111111111
 20
48.2001953125
 10
65.1127387153
 20
48.1741536458
 10
65.1170789931
 20
48.1513671875
 10
65.1241319444
 20
48.1323784722
 10
65.1338975694
 20
48.1161024306
 10
65.1474609375
 20
48.1025390625
 10
65.1659071181
 20
48.0900607639
 10
65.1881510417
 20
48.0792100694
 10
65.2152777778
 20
48.0694444444
 10
65.2152777778
 20
48.0694444444
 10
65.2152777778
 20
48.0
 10
65.2152777778
 20
48.0
 10
64.7291666667
 20
48.0
 10
64.7291666667
 20
48.0
 10
64.7291666667
 20
48.0694444444
 10
64.7291666667
 20
48.0694444444
 10
64.7562934028
 20
48.0792100694
 10
64.7790798611
 20
48.0900607639
 10
64.7969835069
 20
48.1025390625
 10
64.810546875
 20
48.1161024306
 10
64.8203125
 20
48.1323784722
 10
64.8279079861
 20
48.1524522569
 10
64.8317057292
 20
48.1752387153
 10
64.8333333333
 20
48.2018229167
 10
64.8333333333
 20
48.2018229167
 10
64.8333333333
 20
50.2998046875
 10
64.8333333333
 20
50.2998046875
 10
64.8317057292
 20
50.3258463542
 10
64.8279079861
 20
50.3480902778
 10
64.8203125
 20
50.3676215278
 10
64.810546875
 20
50.3833550347
 10
64.7969835069
 20
50.3974609375
 10
64.7790798611
 20
50.4099392361
 10
64.7562934028
 20
50.4207899306
 10
64.7291666667
 20
50.4305555556
 10
64.7291666667
 20
50.4305555556
 10
64.7291666667
 20
50.5
 10
64.7291666667
 20
50.5
 10
66.0339626736
 20
50.5
 10
66.0339626736
 20
50.5
 10
66.1636284722
 20
50.4983723958
 10
66.2781032986
 20
50.4924045139
 10
66.3768446181
 20
50.4831814236
 10
66.4609375
 20
50.4701605903
 10
66.5352647569
 20
50.4522569444
 10
66.6057942708
 20
50.4289279514
 10
66.6719835069
 20
50.3990885417
 10
66.7338324653
 20
50.36328125
 10
66.7338324653
 20
50.36328125
 10
66.7935112847
 20
50.3209635417
 10
66.8472222222
 20
50.2715928819
 10
66.8944227431
 20
50.2146267361
 10
66.9356553819
 20
50.1506076389
 10
66.9356553819
 20
50.1506076389
 10
66.9730902778
 20
50.0724826389
 10
66.9996744792
 20
49.9894748264
 10
67.0154079861
 20
49.9021267361
 10
67.0208333333
 20
49.8104383681
 10
67.0208333333
 20
49.8104383681
 10
67.0181206597
 20
49.7469618056
 10
67.0110677083
 20
49.6856553819
 10
66.9985894097
 20
49.6265190972
 10
66.9812282986
 20
49.5695529514
 10
66.958984375
 20
49.5152994792
 10
66.9318576389
 20
49.4632161458
 10
66.8998480903
 20
49.4133029514
 10
66.8629557292
 20
49.3661024306
 10
66.8629557292
 20
49.3661024306
 10
66.7983940972
 20
49.3004557292
 10
66.7256944444
 20
49.2456597222
 10
66.6443142361
 20
49.201171875
 10
66.5553385417
 20
49.1675347222
 10
66.5059678819
 20
49.1545138889
 10
66.4522569444
 20
49.1431206597
 10
66.3931206597
 20
49.1333550347
 10
66.3291015625
 20
49.1252170139
 10
66.2601996528
 20
49.1192491319
 10
66.1864149306
 20
49.1149088542
 10
66.1072048611
 20
49.1121961806
 10
66.0236545139
 20
49.1111111111
 10
66.0236545139
 20
49.1111111111
 10
65.1111111111
 20
49.1111111111
  0
LWPOLYLINE
  5
81
330
1F
100
AcDbEntity
  8
0
  6
Continuous
 62
     7
100
AcDbPolyline
 90
       42
 70
   128
 43
0.0
 10
65.1111006737
 20
49.3541666667
 10
66.0372178819
 20
49.3541666667
 10
66.0372178819
 20
49.3541666667
 10
66.1337890625
 20
49.3552517361
 10
66.216796875
 20
49.3585069444
 10
66.2867838542
 20
49.3633897569
 10
66.34375
 20
49.3704427083
 10
66.392578125
 20
49.3807508681
 10
66.4392361111
 20
49.3948567708
 10
66.4826388889
 20
49.4133029514
 10
66.5238715278
 20
49.4350043403
 10
66.5238715278
 20
49.4350043403
 10
66.5672743056
 20
49.46484375
 10
66.6047092014
 20
49.4995659722
 10
66.6361762153
 20
49.5386284722
 10
66.6622178819
 20
49.5825737847
 10
66.6822916667
 20
49.630859375
 10
66.6969401042
 20
49.6840277778
 10
66.7056206597
 20
49.7420789931
 10
66.7083333333
 20
49.8044704861
 10
66.7083333333
 20
49.8044704861
 10
66.7056206597
 20
49.8674045139
 10
66.6969401042
 20
49.9259982639
 10
66.6822916667
 20
49.9791666667
 10
66.6622178819
 20
50.0279947917
 10
66.6361762153
 20
50.0724826389
 10
66.6047092014
 20
50.1115451389
 10
66.5672743056
 20
50.1462673611
 10
66.5238715278
 20
50.1761067708
 10
66.5238715278
 20
50.1761067708
 10
66.4826388889
 20
50.1978081597
 10
66.4392361111
 20
50.2162543403
 10
66.3931206597
 20
50.2298177083
 10
66.3442925347
 20
50.2401258681
 10
66.2878689236
 20
50.2477213542
 10
66.2178819444
 20
50.2526041667
 10
66.1343315972
 20
50.255859375
 10
66.0372178819
 20
50.2569444444
 10
66.0372178819
 20
50.2569444444
 10
65.1111111111
 20
50.2569444444
 10
65.1111111111
 20
50.2569444444
 10
65.1111111111
 20
49.3541666667
  0
LWPOLYLINE
  5
82
330
1F
100
AcDbEntity
  8
0
  6
Continuous
 62
     7
100
AcDbPolyline
 90
       67
 70
   128
 43
0.0
 10
67.819416523
 20
48.2430555556
 10
69.4313151042
 20
48.2430555556
 10
69.4313151042
 20
48.2430555556
 10
69.4671223958
 20
48.244140625
 10
69.4975043403
 20
48.2484809028
 10
69.5219184028
 20
48.2549913194
 10
69.5409071181
 20
48.2642144097
 10
69.5560980903
 20
48.2772352431
 10
69.5696614583
 20
48.2956814236
 10
69.5810546875
 20
48.3190104167
 10
69.5902777778
 20
48.3472222222
 10
69.5902777778
 20
48.3472222222
 10
69.6597222222
 20
48.3472222222
 10
69.6597222222
 20
48.3472222222
 10
69.6597222222
 20
47.8958333333
 10
69.6597222222
 20
47.8958333333
 10
69.5902777778
 20
47.8958333333
 10
69.5902777778
 20
47.8958333333
 10
69.5810546875
 20
47.9240451389
 10
69.5702039931
 20
47.9473741319
 10
69.5571831597
 20
47.9658203125
 10
69.5419921875
 20
47.9788411458
 10
69.5230034722
 20
47.9880642361
 10
69.4991319444
 20
47.9945746528
 10
69.46875
 20
47.9989149306
 10
69.4334852431
 20
48.0
 10
69.4334852431
 20
48.0
 10
67.4375
 20
48.0
 10
67.4375
 20
48.0
 10
67.4375
 20
48.0694444444
 10
67.4375
 20
48.0694444444
 10
67.466796875
 20
48.0792100694
 10
67.4901258681
 20
48.0906032986
 10
67.5085720486
 20
48.1036241319
 10
67.5210503472
 20
48.1182725694
 10
67.5302734375
 20
48.13671875
 10
67.5367838542
 20
48.1605902778
 10
67.5405815972
 20
48.1904296875
 10
67.5416666667
 20
48.2256944444
 10
67.5416666667
 20
48.2256944444
 10
67.5416666667
 20
50.2743055556
 10
67.5416666667
 20
50.2743055556
 10
67.5405815972
 20
50.3095703125
 10
67.5362413194
 20
50.3394097222
 10
67.5297309028
 20
50.36328125
 10
67.5205078125
 20
50.3817274306
 10
67.5074869792
 20
50.3963758681
 10
67.4890407986
 20
50.4093967014
 10
67.4657118056
 20
50.4207899306
 10
67.4375
 20
50.4305555556
 10
67.4375
 20
50.4305555556
 10
67.4375
 20
50.5
 10
67.4375
 20
50.5
 10
67.9236111111
 20
50.5
 10
67.9236111111
 20
50.5
 10
67.9236111111
 20
50.4305555556
 10
67.9236111111
 20
50.4305555556
 10
67.8953993056
 20
50.4207899306
 10
67.8720703125
 20
50.4088541667
 10
67.8536241319
 20
50.3958333333
 10
67.8406032986
 20
50.3811848958
 10
67.8313802083
 20
50.36328125
 10
67.8248697917
 20
50.3394097222
 10
67.8205295139
 20
50.3095703125
 10
67.8194444444
 20
50.2743055556
 10
67.8194444444
 20
50.2743055556
 10
67.8194444444
 20
48.2430555556
  0
LWPOLYLINE
  5
83
330
1F
100
AcDbEntity
  8
0
  6
Continuous
 62
     7
100
AcDbPolyline
 90
       90
 70
   128
 43
0.0
 10
71.7543959618
 20
48.6944444444
 10
70.3633897569
 20
48.6944444444
 10
70.3633897569
 20
48.6944444444
 10
70.1447482639
 20
48.2332899306
 10
70.1447482639
 20
48.2332899306
 10
70.1311848958
 20
48.2029079861
 10
70.1214192708
 20
48.1774088542
 10
70.1154513889
 20
48.15625
 10
70.11328125
 20
48.1405164931
 10
70.11328125
 20
48.1405164931
 10
70.1208767361
 20
48.1161024306
 10
70.1431206597
 20
48.0960286458
 10
70.1805555556
 20
48.0808376736
 10
70.2326388889
 20
48.0694444444
 10
70.2326388889
 20
48.0694444444
 10
70.2326388889
 20
48.0
 10
70.2326388889
 20
48.0
 10
69.6944444444
 20
48.0
 10
69.6944444444
 20
48.0
 10
69.6944444444
 20
48.0694444444
 10
69.6944444444
 20
48.0694444444
 10
69.7297092014
 20
48.0775824653
 10
69.7606336806
 20
48.0895182292
 10
69.7872178819
 20
48.1047092014
 10
69.8089192708
 20
48.1236979167
 10
69.830078125
 20
48.1508246528
 10
69.8550347222
 20
48.1898871528
 10
69.8821614583
 20
48.2414279514
 10
69.9130859375
 20
48.3054470486
 10
69.9130859375
 20
48.3054470486
 10
70.8310546875
 20
50.2634548611
 10
70.8310546875
 20
50.2634548611
 10
70.845703125
 20
50.2960069444
 10
70.8560112847
 20
50.3231336806
 10
70.8619791667
 20
50.3442925347
 10
70.8641493056
 20
50.3594835069
 10
70.8641493056
 20
50.3594835069
 10
70.8587239583
 20
50.3817274306
 10
70.8419053819
 20
50.4007161458
 10
70.8136935764
 20
50.4169921875
 10
70.7746310764
 20
50.4305555556
 10
70.7746310764
 20
50.4305555556
 10
70.7746310764
 20
50.5
 10
70.7746310764
 20
50.5
 10
71.3833550347
 20
50.5
 10
71.3833550347
 20
50.5
 10
71.3833550347
 20
50.4305555556
 10
71.3833550347
 20
50.4305555556
 10
71.3442925347
 20
50.4148220486
 10
71.3160807292
 20
50.3969184028
 10
71.2992621528
 20
50.3763020833
 10
71.2938368056
 20
50.3540581597
 10
71.2938368056
 20
50.3540581597
 10
71.2960069444
 20
50.3410373264
 10
71.3019748264
 20
50.3215060764
 10
71.3122829861
 20
50.2960069444
 10
71.3269314236
 20
50.2634548611
 10
71.3269314236
 20
50.2634548611
 10
72.2074652778
 20
48.3759765625
 10
72.2074652778
 20
48.3759765625
 10
72.2307942708
 20
48.3266059028
 10
72.251953125
 20
48.2826605903
 10
72.271484375
 20
48.244140625
 10
72.2883029514
 20
48.2105034722
 10
72.3034939236
 20
48.1828342014
 10
72.3165147569
 20
48.1600477431
 10
72.3273654514
 20
48.1432291667
 10
72.3360460069
 20
48.1312934028
 10
72.3561197917
 20
48.1139322917
 10
72.3859592014
 20
48.09765625
 10
72.4244791667
 20
48.0830078125
 10
72.4722222222
 20
48.0694444444
 10
72.4722222222
 20
48.0694444444
 10
72.4722222222
 20
48.0
 10
72.4722222222
 20
48.0
 10
71.8993055556
 20
48.0
 10
71.8993055556
 20
48.0
 10
71.8993055556
 20
48.0694444444
 10
71.8993055556
 20
48.0694444444
 10
71.9432508681
 20
48.0797526042
 10
71.9741753472
 20
48.0960286458
 10
71.9931640625
 20
48.1188151042
 10
71.9991319444
 20
48.1475694444
 10
71.9991319444
 20
48.1475694444
 10
71.9964192708
 20
48.1654730903
 10
71.9888237847
 20
48.1898871528
 10
71.9763454861
 20
48.2208116319
 10
71.9584418403
 20
48.2582465278
 10
71.9584418403
 20
48.2582465278
 10
71.7544487847
 20
48.6944444444
  0
LWPOLYLINE
  5
84
330
1F
100
AcDbEntity
  8
0
  6
Continuous
 62
     7
100
AcDbPolyline
 90
        6
 70
   128
 43
0.0
 10
71.6448426247
 20
48.9375
 10
71.0589192708
 20
50.2064887153
 10
71.0589192708
 20
50.2064887153
 10
70.4735243056
 20
48.9375
 10
70.4735243056
 20
48.9375
 10
71.6448567708
 20
48.9375
  0
LWPOLYLINE
  5
85
330
1F
100
AcDbEntity
  8
0
  6
Continuous
 62
     7
100
AcDbPolyline
 90
       91
 70
   128
 43
0.0
 10
73.8610625267
 20
49.09375
 10
73.8611111111
 20
48.2235243056
 10
73.8611111111
 20
48.2235243056
 10
73.8621961806
 20
48.1893446181
 10
73.8665364583
 20
48.1605902778
 10
73.873046875
 20
48.1372612847
 10
73.8822699653
 20
48.1188151042
 10
73.8952907986
 20
48.1041666667
 10
73.9137369792
 20
48.0906032986
 10
73.9370659722
 20
48.0792100694
 10
73.9652777778
 20
48.0694444444
 10
73.9652777778
 20
48.0694444444
 10
73.9652777778
 20
48.0
 10
73.9652777778
 20
48.0
 10
73.4791666667
 20
48.0
 10
73.4791666667
 20
48.0
 10
73.4791666667
 20
48.0694444444
 10
73.4791666667
 20
48.0694444444
 10
73.5073784722
 20
48.0792100694
 10
73.5307074653
 20
48.0906032986
 10
73.5491536458
 20
48.1030815972
 10
73.5621744792
 20
48.1177300347
 10
73.5713975694
 20
48.1356336806
 10
73.5779079861
 20
48.1595052083
 10
73.5822482639
 20
48.1888020833
 10
73.5833333333
 20
48.2235243056
 10
73.5833333333
 20
48.2235243056
 10
73.5833333333
 20
49.09375
 10
73.5833333333
 20
49.09375
 10
72.7787543403
 20
50.1538628472
 10
72.7787543403
 20
50.1538628472
 10
72.7472873264
 20
50.1950954861
 10
72.7179904514
 20
50.2319878472
 10
72.69140625
 20
50.2650824653
 10
72.6675347222
 20
50.2943793403
 10
72.6463758681
 20
50.3193359375
 10
72.6273871528
 20
50.3404947917
 10
72.6111111111
 20
50.3578559028
 10
72.5970052083
 20
50.3714192708
 10
72.5704210069
 20
50.392578125
 10
72.5411241319
 20
50.4093967014
 10
72.5080295139
 20
50.421875
 10
72.4722222222
 20
50.4305555556
 10
72.4722222222
 20
50.4305555556
 10
72.4722222222
 20
50.5
 10
72.4722222222
 20
50.5
 10
73.0635850694
 20
50.5
 10
73.0635850694
 20
50.5
 10
73.0635850694
 20
50.4305555556
 10
73.0635850694
 20
50.4305555556
 10
73.0283203125
 20
50.4175347222
 10
73.0033637153
 20
50.4018012153
 10
72.9881727431
 20
50.3817274306
 10
72.9832899306
 20
50.3589409722
 10
72.9832899306
 20
50.3589409722
 10
72.9881727431
 20
50.3253038194
 10
73.0033637153
 20
50.2840711806
 10
73.0283203125
 20
50.236328125
 10
73.0635850694
 20
50.1809895833
 10
73.0635850694
 20
50.1809895833
 10
73.7319878472
 20
49.3004557292
 10
73.7319878472
 20
49.3004557292
 10
74.3819444444
 20
50.2102864583
 10
74.3819444444
 20
50.2102864583
 10
74.4172092014
 20
50.2629123264
 10
74.4427083333
 20
50.3057725694
 10
74.4578993056
 20
50.3399522569
 10
74.4627821181
 20
50.3643663194
 10
74.4627821181
 20
50.3643663194
 10
74.4578993056
 20
50.3860677083
 10
74.4427083333
 20
50.4039713542
 10
74.4172092014
 20
50.4191623264
 10
74.3819444444
 20
50.4305555556
 10
74.3819444444
 20
50.4305555556
 10
74.3819444444
 20
50.5
 10
74.3819444444
 20
50.5
 10
74.9722222222
 20
50.5
 10
74.9722222222
 20
50.5
 10
74.9722222222
 20
50.4305555556
 10
74.9722222222
 20
50.4305555556
 10
74.9282769097
 20
50.4191623264
 10
74.8870442708
 20
50.40234375
 10
74.849609375
 20
50.3790147569
 10
74.8154296875
 20
50.3497178819
 10
74.8154296875
 20
50.3497178819
 10
74.7541232639
 20
50.28515625
 10
74.7047526042
 20
50.2314453125
 10
74.6673177083
 20
50.1875
 10
74.6418185764
 20
50.1538628472
 10
74.6418185764
 20
50.1538628472
 10
73.8611111111
 20
49.09375
  0
LWPOLYLINE
  5
86
330
1F
100
AcDbEntity
  8
0
  6
Continuous
 62
     7
100
AcDbPolyline
 90
      114
 70
   128
 43
0.0
 10
76.6214728355
 20
48.0
 10
75.5277777778
 20
50.1609157986
 10
75.5277777778
 20
50.1609157986
 10
75.5277777778
 20
48.2305772569
 10
75.5277777778
 20
48.2305772569
 10
75.5288628472
 20
48.1953125
 10
75.533203125
 20
48.1649305556
 10
75.5397135417
 20
48.1405164931
 10
75.5489366319
 20
48.1209852431
 10
75.5619574653
 20
48.1057942708
 10
75.5804036458
 20
48.0916883681
 10
75.6037326389
 20
48.0797526042
 10
75.6319444444
 20
48.0694444444
 10
75.6319444444
 20
48.0694444444
 10
75.6319444444
 20
48.0
 10
75.6319444444
 20
48.0
 10
75.1805555556
 20
48.0
 10
75.1805555556
 20
48.0
 10
75.1805555556
 20
48.0694444444
 10
75.1805555556
 20
48.0694444444
 10
75.2087673611
 20
48.0792100694
 10
75.2320963542
 20
48.0906032986
 10
75.2505425347
 20
48.1036241319
 10
75.2635633681
 20
48.1182725694
 10
75.2727864583
 20
48.13671875
 10
75.279296875
 20
48.1605902778
 10
75.2836371528
 20
48.1904296875
 10
75.2847222222
 20
48.2256944444
 10
75.2847222222
 20
48.2256944444
 10
75.2847222222
 20
50.2743055556
 10
75.2847222222
 20
50.2743055556
 10
75.2836371528
 20
50.3095703125
 10
75.279296875
 20
50.3394097222
 10
75.2727864583
 20
50.3638237847
 10
75.2635633681
 20
50.3822699653
 10
75.2505425347
 20
50.3974609375
 10
75.2320963542
 20
50.4104817708
 10
75.2087673611
 20
50.4213324653
 10
75.1805555556
 20
50.4305555556
 10
75.1805555556
 20
50.4305555556
 10
75.1805555556
 20
50.5
 10
75.1805555556
 20
50.5
 10
75.8017578125
 20
50.5
 10
75.8017578125
 20
50.5
 10
75.8017578125
 20
50.4305555556
 10
75.8017578125
 20
50.4305555556
 10
75.7637803819
 20
50.4142795139
 10
75.7361111111
 20
50.3963758681
 10
75.7198350694
 20
50.3763020833
 10
75.7144097222
 20
50.3546006944
 10
75.7144097222
 20
50.3546006944
 10
75.7182074653
 20
50.3377821181
 10
75.7290581597
 20
50.3084852431
 10
75.7469618056
 20
50.2677951389
 10
75.7724609375
 20
50.2146267361
 10
75.7724609375
 20
50.2146267361
 10
76.6209852431
 20
48.5257161458
 10
76.6209852431
 20
48.5257161458
 10
77.4733072917
 20
50.2292751736
 10
77.4733072917
 20
50.2292751736
 10
77.4922960069
 20
50.2694227431
 10
77.5053168403
 20
50.3036024306
 10
77.5134548611
 20
50.3312717014
 10
77.5161675347
 20
50.3524305556
 10
77.5161675347
 20
50.3524305556
 10
77.5107421875
 20
50.3752170139
 10
77.4939236111
 20
50.3958333333
 10
77.4662543403
 20
50.4142795139
 10
77.427734375
 20
50.4305555556
 10
77.427734375
 20
50.4305555556
 10
77.427734375
 20
50.5
 10
77.427734375
 20
50.5
 10
78.0625
 20
50.5
 10
78.0625
 20
50.5
 10
78.0625
 20
50.4305555556
 10
78.0625
 20
50.4305555556
 10
78.0342881944
 20
50.4207899306
 10
78.0109592014
 20
50.4093967014
 10
77.9925130208
 20
50.3963758681
 10
77.9794921875
 20
50.3817274306
 10
77.9702690972
 20
50.36328125
 10
77.9637586806
 20
50.3394097222
 10
77.9594184028
 20
50.3095703125
 10
77.9583333333
 20
50.2743055556
 10
77.9583333333
 20
50.2743055556
 10
77.9583333333
 20
48.2256944444
 10
77.9583333333
 20
48.2256944444
 10
77.9594184028
 20
48.1909722222
 10
77.9637586806
 20
48.1622178819
 10
77.9702690972
 20
48.1378038194
 10
77.9794921875
 20
48.1193576389
 10
77.9925130208
 20
48.1041666667
 10
78.0109592014
 20
48.0911458333
 10
78.0342881944
 20
48.0792100694
 10
78.0625
 20
48.0694444444
 10
78.0625
 20
48.0694444444
 10
78.0625
 20
48.0
 10
78.0625
 20
48.0
 10
77.5763888889
 20
48.0
 10
77.5763888889
 20
48.0
 10
77.5763888889
 20
48.0694444444
 10
77.5763888889
 20
48.0694444444
 10
77.6056857639
 20
48.0797526042
 10
77.6290147569
 20
48.0916883681
 10
77.6474609375
 20
48.1047092014
 10
77.6599392361
 20
48.1199001736
 10
77.6691623264
 20
48.1388888889
 10
77.6756727431
 20
48.1638454861
 10
77.6794704861
 20
48.1942274306
 10
77.6805555556
 20
48.2305772569
 10
77.6805555556
 20
48.2305772569
 10
77.6805555556
 20
50.1609157986
 10
77.6805555556
 20
50.1609157986
 10
76.6215277778
 20
48.0
  0
LWPOLYLINE
  5
87
330
1F
100
AcDbEntity
  8
0
  6
Continuous
 62
     7
100
AcDbPolyline
 90
       90
 70
   128
 43
0.0
 10
80.4002285004
 20
48.6944444444
 10
79.0092230903
 20
48.6944444444
 10
79.0092230903
 20
48.6944444444
 10
78.7905815972
 20
48.2332899306
 10
78.7905815972
 20
48.2332899306
 10
78.7770182292
 20
48.2029079861
 10
78.7672526042
 20
48.1774088542
 10
78.7612847222
 20
48.15625
 10
78.7591145833
 20
48.1405164931
 10
78.7591145833
 20
48.1405164931
 10
78.7667100694
 20
48.1161024306
 10
78.7889539931
 20
48.0960286458
 10
78.8263888889
 20
48.0808376736
 10
78.8784722222
 20
48.0694444444
 10
78.8784722222
 20
48.0694444444
 10
78.8784722222
 20
48.0
 10
78.8784722222
 20
48.0
 10
78.3402777778
 20
48.0
 10
78.3402777778
 20
48.0
 10
78.3402777778
 20
48.0694444444
 10
78.3402777778
 20
48.0694444444
 10
78.3755425347
 20
48.0775824653
 10
78.4064670139
 20
48.0895182292
 10
78.4330512153
 20
48.1047092014
 10
78.4547526042
 20
48.1236979167
 10
78.4759114583
 20
48.1508246528
 10
78.5008680556
 20
48.1898871528
 10
78.5279947917
 20
48.2414279514
 10
78.5589192708
 20
48.3054470486
 10
78.5589192708
 20
48.3054470486
 10
79.4768880208
 20
50.2634548611
 10
79.4768880208
 20
50.2634548611
 10
79.4915364583
 20
50.2960069444
 10
79.5018446181
 20
50.3231336806
 10
79.5078125
 20
50.3442925347
 10
79.5099826389
 20
50.3594835069
 10
79.5099826389
 20
50.3594835069
 10
79.5045572917
 20
50.3817274306
 10
79.4877387153
 20
50.4007161458
 10
79.4595269097
 20
50.4169921875
 10
79.4204644097
 20
50.4305555556
 10
79.4204644097
 20
50.4305555556
 10
79.4204644097
 20
50.5
 10
79.4204644097
 20
50.5
 10
80.0291883681
 20
50.5
 10
80.0291883681
 20
50.5
 10
80.0291883681
 20
50.4305555556
 10
80.0291883681
 20
50.4305555556
 10
79.9901258681
 20
50.4148220486
 10
79.9619140625
 20
50.3969184028
 10
79.9450954861
 20
50.3763020833
 10
79.9396701389
 20
50.3540581597
 10
79.9396701389
 20
50.3540581597
 10
79.9418402778
 20
50.3410373264
 10
79.9478081597
 20
50.3215060764
 10
79.9581163194
 20
50.2960069444
 10
79.9727647569
 20
50.2634548611
 10
79.9727647569
 20
50.2634548611
 10
80.8532986111
 20
48.3759765625
 10
80.8532986111
 20
48.3759765625
 10
80.8766276042
 20
48.3266059028
 10
80.8977864583
 20
48.2826605903
 10
80.9173177083
 20
48.244140625
 10
80.9341362847
 20
48.2105034722
 10
80.9493272569
 20
48.1828342014
 10
80.9623480903
 20
48.1600477431
 10
80.9731987847
 20
48.1432291667
 10
80.9818793403
 20
48.1312934028
 10
81.001953125
 20
48.1139322917
 10
81.0317925347
 20
48.09765625
 10
81.0703125
 20
48.0830078125
 10
81.1180555556
 20
48.0694444444
 10
81.1180555556
 20
48.0694444444
 10
81.1180555556
 20
48.0
 10
81.1180555556
 20
48.0
 10
80.5451388889
 20
48.0
 10
80.5451388889
 20
48.0
 10
80.5451388889
 20
48.0694444444
 10
80.5451388889
 20
48.0694444444
 10
80.5890842014
 20
48.0797526042
 10
80.6200086806
 20
48.0960286458
 10
80.6389973958
 20
48.1188151042
 10
80.6449652778
 20
48.1475694444
 10
80.6449652778
 20
48.1475694444
 10
80.6422526042
 20
48.1654730903
 10
80.6346571181
 20
48.1898871528
 10
80.6221788194
 20
48.2208116319
 10
80.6042751736
 20
48.2582465278
 10
80.6042751736
 20
48.2582465278
 10
80.4002821181
 20
48.6944444444
  0
LWPOLYLINE
  5
88
330
1F
100
AcDbEntity
  8
0
  6
Continuous
 62
     7
100
AcDbPolyline
 90
        6
 70
   128
 43
0.0
 10
80.2906751633
 20
48.9375
 10
79.7047526042
 20
50.2064887153
 10
79.7047526042
 20
50.2064887153
 10
79.1193576389
 20
48.9375
 10
79.1193576389
 20
48.9375
 10
80.2906901042
 20
48.9375
  0
LWPOLYLINE
  5
89
330
1F
100
AcDbEntity
  8
0
  6
Continuous
 62
     7
100
AcDbPolyline
 90
       82
 70
   128
 43
0.0
 10
82.472205162
 20
50.2569444444
 10
82.4722222222
 20
48.2256944444
 10
82.4722222222
 20
48.2256944444
 10
82.4733072917
 20
48.1909722222
 10
82.4776475694
 20
48.1622178819
 10
82.4841579861
 20
48.1378038194
 10
82.4933810764
 20
48.1193576389
 10
82.5064019097
 20
48.1047092014
 10
82.5248480903
 20
48.0911458333
 10
82.5481770833
 20
48.0797526042
 10
82.5763888889
 20
48.0694444444
 10
82.5763888889
 20
48.0694444444
 10
82.5763888889
 20
48.0
 10
82.5763888889
 20
48.0
 10
82.0902777778
 20
48.0
 10
82.0902777778
 20
48.0
 10
82.0902777778
 20
48.0694444444
 10
82.0902777778
 20
48.0694444444
 10
82.1184895833
 20
48.0792100694
 10
82.1418185764
 20
48.0911458333
 10
82.1602647569
 20
48.1036241319
 10
82.1732855903
 20
48.1182725694
 10
82.1825086806
 20
48.13671875
 10
82.1890190972
 20
48.1605902778
 10
82.193359375
 20
48.1904296875
 10
82.1944444444
 20
48.2256944444
 10
82.1944444444
 20
48.2256944444
 10
82.1944444444
 20
50.2569444444
 10
82.1944444444
 20
50.2569444444
 10
81.3453776042
 20
50.2569444444
 10
81.3453776042
 20
50.2569444444
 10
81.3095703125
 20
50.255859375
 10
81.2797309028
 20
50.2520616319
 10
81.2547743056
 20
50.2455512153
 10
81.2357855903
 20
50.236328125
 10
81.2205946181
 20
50.2233072917
 10
81.2075737847
 20
50.2054036458
 10
81.1967230903
 20
50.1815321181
 10
81.1875
 20
50.1527777778
 10
81.1875
 20
50.1527777778
 10
81.1180555556
 20
50.1527777778
 10
81.1180555556
 20
50.1527777778
 10
81.1180555556
 20
50.6041666667
 10
81.1180555556
 20
50.6041666667
 10
81.1875
 20
50.6041666667
 10
81.1875
 20
50.6041666667
 10
81.1967230903
 20
50.5754123264
 10
81.2075737847
 20
50.5520833333
 10
81.2205946181
 20
50.5336371528
 10
81.2357855903
 20
50.5206163194
 10
81.2547743056
 20
50.5113932292
 10
81.2791883681
 20
50.5054253472
 10
81.3090277778
 20
50.5010850694
 10
81.3448350694
 20
50.5
 10
81.3448350694
 20
50.5
 10
83.3218315972
 20
50.5
 10
83.3218315972
 20
50.5
 10
83.3576388889
 20
50.5010850694
 10
83.3874782986
 20
50.5054253472
 10
83.4118923611
 20
50.5113932292
 10
83.4308810764
 20
50.5206163194
 10
83.4460720486
 20
50.5336371528
 10
83.4590928819
 20
50.5520833333
 10
83.4699435764
 20
50.5754123264
 10
83.4791666667
 20
50.6041666667
 10
83.4791666667
 20
50.6041666667
 10
83.5486111111
 20
50.6041666667
 10
83.5486111111
 20
50.6041666667
 10
83.5486111111
 20
50.1527777778
 10
83.5486111111
 20
50.1527777778
 10
83.4791666667
 20
50.1527777778
 10
83.4791666667
 20
50.1527777778
 10
83.4699435764
 20
50.1815321181
 10
83.4590928819
 20
50.2054036458
 10
83.4455295139
 20
50.2233072917
 10
83.4303385417
 20
50.236328125
 10
83.4113498264
 20
50.2455512153
 10
83.3869357639
 20
50.2520616319
 10
83.3570963542
 20
50.255859375
 10
83.3212890625
 20
50.2569444444
 10
83.3212890625
 20
50.2569444444
 10
82.4722222222
 20
50.2569444444
  0
LWPOLYLINE
  5
8A
330
1F
100
AcDbEntity
  8
0
  6
Continuous
 62
     7
100
AcDbPolyline
 90
      112
 70
   128
 43
0.0
 10
84.2777490616
 20
49.1805555556
 10
84.2777777778
 20
48.2430555556
 10
84.2777777778
 20
48.2430555556
 10
85.8901909722
 20
48.2430555556
 10
85.8901909722
 20
48.2430555556
 10
85.9259982639
 20
48.244140625
 10
85.9563802083
 20
48.2484809028
 10
85.9807942708
 20
48.2549913194
 10
85.9997829861
 20
48.2642144097
 10
86.0149739583
 20
48.2772352431
 10
86.0279947917
 20
48.2956814236
 10
86.0393880208
 20
48.3190104167
 10
86.0486111111
 20
48.3472222222
 10
86.0486111111
 20
48.3472222222
 10
86.1180555556
 20
48.3472222222
 10
86.1180555556
 20
48.3472222222
 10
86.1180555556
 20
47.8958333333
 10
86.1180555556
 20
47.8958333333
 10
86.0486111111
 20
47.8958333333
 10
86.0486111111
 20
47.8958333333
 10
86.0383029514
 20
47.9240451389
 10
86.0269097222
 20
47.9473741319
 10
86.0133463542
 20
47.9658203125
 10
85.9981553819
 20
47.9788411458
 10
85.9797092014
 20
47.9880642361
 10
85.9552951389
 20
47.9945746528
 10
85.9254557292
 20
47.9989149306
 10
85.8901909722
 20
48.0
 10
85.8901909722
 20
48.0
 10
83.8958333333
 20
48.0
 10
83.8958333333
 20
48.0
 10
83.8958333333
 20
48.0694444444
 10
83.8958333333
 20
48.0694444444
 10
83.9251302083
 20
48.0792100694
 10
83.9484592014
 20
48.0906032986
 10
83.9669053819
 20
48.1036241319
 10
83.9793836806
 20
48.1182725694
 10
83.9886067708
 20
48.13671875
 10
83.9951171875
 20
48.1605902778
 10
83.9989149306
 20
48.1904296875
 10
84.0
 20
48.2256944444
 10
84.0
 20
48.2256944444
 10
84.0
 20
50.2743055556
 10
84.0
 20
50.2743055556
 10
83.9989149306
 20
50.3095703125
 10
83.9945746528
 20
50.3394097222
 10
83.9880642361
 20
50.36328125
 10
83.9788411458
 20
50.3817274306
 10
83.9658203125
 20
50.3963758681
 10
83.9473741319
 20
50.4093967014
 10
83.9240451389
 20
50.4207899306
 10
83.8958333333
 20
50.4305555556
 10
83.8958333333
 20
50.4305555556
 10
83.8958333333
 20
50.5
 10
83.8958333333
 20
50.5
 10
85.8581814236
 20
50.5
 10
85.8581814236
 20
50.5
 10
85.8934461806
 20
50.5010850694
 10
85.9227430556
 20
50.5054253472
 10
85.9466145833
 20
50.5113932292
 10
85.9650607639
 20
50.5206163194
 10
85.9797092014
 20
50.5336371528
 10
85.9927300347
 20
50.5520833333
 10
86.0041232639
 20
50.5754123264
 10
86.0138888889
 20
50.6041666667
 10
86.0138888889
 20
50.6041666667
 10
86.0833333333
 20
50.6041666667
 10
86.0833333333
 20
50.6041666667
 10
86.0833333333
 20
50.1527777778
 10
86.0833333333
 20
50.1527777778
 10
86.0138888889
 20
50.1527777778
 10
86.0138888889
 20
50.1527777778
 10
86.0046657986
 20
50.1809895833
 10
85.9938151042
 20
50.2043185764
 10
85.9802517361
 20
50.2222222222
 10
85.9650607639
 20
50.2352430556
 10
85.9460720486
 20
50.2450086806
 10
85.9222005208
 20
50.2515190972
 10
85.8918185764
 20
50.255859375
 10
85.8565538194
 20
50.2569444444
 10
85.8565538194
 20
50.2569444444
 10
84.2777777778
 20
50.2569444444
 10
84.2777777778
 20
50.2569444444
 10
84.2777777778
 20
49.4236111111
 10
84.2777777778
 20
49.4236111111
 10
85.3026258681
 20
49.4236111111
 10
85.3026258681
 20
49.4236111111
 10
85.337890625
 20
49.4246961806
 10
85.3677300347
 20
49.4290364583
 10
85.3916015625
 20
49.435546875
 10
85.4100477431
 20
49.4447699653
 10
85.4252387153
 20
49.4577907986
 10
85.4382595486
 20
49.4762369792
 10
85.4491102431
 20
49.4995659722
 10
85.4583333333
 20
49.5277777778
 10
85.4583333333
 20
49.5277777778
 10
85.5277777778
 20
49.5277777778
 10
85.5277777778
 20
49.5277777778
 10
85.5277777778
 20
49.0763888889
 10
85.5277777778
 20
49.0763888889
 10
85.4583333333
 20
49.0763888889
 10
85.4583333333
 20
49.0763888889
 10
85.4491102431
 20
49.1046006944
 10
85.4382595486
 20
49.1279296875
 10
85.4252387153
 20
49.1463758681
 10
85.4100477431
 20
49.1593967014
 10
85.3916015625
 20
49.1686197917
 10
85.3677300347
 20
49.1751302083
 10
85.337890625
 20
49.1794704861
 10
85.3026258681
 20
49.1805555556
 10
85.3026258681
 20
49.1805555556
 10
84.2777777778
 20
49.1805555556
  0
LWPOLYLINE
  5
8B
330
1F
100
AcDbEntity
  8
0
  6
Continuous
 62
     7
100
AcDbPolyline
 90
       14
 70
   128
 43
0.0
 10
86.4652395248
 20
50.1527777778
 10
88.0625
 20
49.3888888889
 10
88.0625
 20
49.3888888889
 10
88.0625
 20
49.1458333333
 10
88.0625
 20
49.1458333333
 10
86.4652777778
 20
48.3819444444
 10
86.4652777778
 20
48.3819444444
 10
86.4652777778
 20
48.6483289931
 10
86.4652777778
 20
48.6483289931
 10
87.7586805556
 20
49.2673611111
 10
87.7586805556
 20
49.2673611111
 10
86.4652777778
 20
49.8863932292
 10
86.4652777778
 20
49.8863932292
 10
86.4652777778
 20
50.1527777778
  0
LWPOLYLINE
  5
8C
330
1F
100
AcDbEntity
  8
0
  6
Continuous
 62
     7
100
AcDbPolyline
 90
       90
 70
   128
 43
0.0
 10
58.8784515858
 20
43.3389756944
 10
59.5360243056
 20
44.7490234375
 10
59.5360243056
 20
44.7490234375
 10
59.5560980903
 20
44.8043619792
 10
59.5626085069
 20
44.8510199653
 10
59.5626085069
 20
44.8510199653
 10
59.5609809028
 20
44.87109375
 10
59.5560980903
 20
44.8889973958
 10
59.5474175347
 20
44.9047309028
 10
59.5360243056
 20
44.9182942708
 10
59.5208333333
 20
44.9296875
 10
59.5023871528
 20
44.9389105903
 10
59.4801432292
 20
44.9465060764
 10
59.4551866319
 20
44.9513888889
 10
59.4551866319
 20
44.9513888889
 10
59.4551866319
 20
45.0208333333
 10
59.4551866319
 20
45.0208333333
 10
59.9548611111
 20
45.0208333333
 10
59.9548611111
 20
45.0208333333
 10
59.9548611111
 20
44.9513888889
 10
59.9548611111
 20
44.9513888889
 10
59.9185112847
 20
44.939453125
 10
59.8875868056
 20
44.9242621528
 10
59.8615451389
 20
44.9069010417
 10
59.8414713542
 20
44.8868272569
 10
59.8213975694
 20
44.8580729167
 10
59.7975260417
 20
44.8146701389
 10
59.7682291667
 20
44.7571614583
 10
59.7351345486
 20
44.6844618056
 10
59.7351345486
 20
44.6844618056
 10
59.1144748264
 20
43.2890625
 10
59.1144748264
 20
43.2890625
 10
59.0954861111
 20
43.2429470486
 10
59.0819227431
 20
43.2027994792
 10
59.0737847222
 20
43.1686197917
 10
59.0710720486
 20
43.1404079861
 10
59.0710720486
 20
43.1404079861
 10
59.0775824653
 20
43.1046006944
 10
59.0965711806
 20
43.0763888889
 10
59.1285807292
 20
43.0552300347
 10
59.1730685764
 20
43.0416666667
 10
59.1730685764
 20
43.0416666667
 10
59.1730685764
 20
42.9722222222
 10
59.1730685764
 20
42.9722222222
 10
58.5458984375
 20
42.9722222222
 10
58.5458984375
 20
42.9722222222
 10
58.5458984375
 20
43.0416666667
 10
58.5458984375
 20
43.0416666667
 10
58.5903862847
 20
43.0563151042
 10
58.6223958333
 20
43.0774739583
 10
58.6413845486
 20
43.1062282986
 10
58.6478949653
 20
43.1420355903
 10
58.6478949653
 20
43.1420355903
 10
58.6451822917
 20
43.1691623264
 10
58.6365017361
 20
43.2027994792
 10
58.6223958333
 20
43.2429470486
 10
58.6028645833
 20
43.2890625
 10
58.6028645833
 20
43.2890625
 10
57.9697265625
 20
44.6844618056
 10
57.9697265625
 20
44.6844618056
 10
57.9518229167
 20
44.7235243056
 10
57.935546875
 20
44.7582465278
 10
57.9198133681
 20
44.7897135417
 10
57.9057074653
 20
44.8168402778
 10
57.8932291667
 20
44.8407118056
 10
57.8812934028
 20
44.8602430556
 10
57.8709852431
 20
44.8765190972
 10
57.8617621528
 20
44.8884548611
 10
57.8422309028
 20
44.9079861111
 10
57.8167317708
 20
44.9248046875
 10
57.7863498264
 20
44.939453125
 10
57.75
 20
44.9513888889
 10
57.75
 20
44.9513888889
 10
57.75
 20
45.0208333333
 10
57.75
 20
45.0208333333
 10
58.3256293403
 20
45.0208333333
 10
58.3256293403
 20
45.0208333333
 10
58.3256293403
 20
44.9513888889
 10
58.3256293403
 20
44.9513888889
 10
58.2784288194
 20
44.9389105903
 10
58.2447916667
 20
44.9182942708
 10
58.2241753472
 20
44.890625
 10
58.2176649306
 20
44.8548177083
 10
58.2176649306
 20
44.8548177083
 10
58.2192925347
 20
44.8314887153
 10
58.2247178819
 20
44.8059895833
 10
58.2333984375
 20
44.7783203125
 10
58.2453342014
 20
44.7490234375
 10
58.2453342014
 20
44.7490234375
 10
58.8784722222
 20
43.3389756944
  0
LWPOLYLINE
  5
8D
330
1F
100
AcDbEntity
  8
0
  6
Continuous
 62
     7
100
AcDbPolyline
 90
       84
 70
   128
 43
0.0
 10
61.2916648388
 20
45.0284288194
 10
61.2195095486
 20
44.9855685764
 10
61.1522352431
 20
44.9530164931
 10
61.0893012153
 20
44.9296875
 10
61.03125
 20
44.9166666667
 10
61.03125
 20
44.9166666667
 10
61.0090060764
 20
44.9123263889
 10
60.9911024306
 20
44.9069010417
 10
60.9780815972
 20
44.900390625
 10
60.9694010417
 20
44.8933376736
 10
60.9634331597
 20
44.8830295139
 10
60.9569227431
 20
44.8656684028
 10
60.9509548611
 20
44.8423394097
 10
60.9444444444
 20
44.8125
 10
60.9444444444
 20
44.8125
 10
60.875
 20
44.8125
 10
60.875
 20
44.8125
 10
60.875
 20
45.2638888889
 10
60.875
 20
45.2638888889
 10
60.9444444444
 20
45.2638888889
 10
60.9444444444
 20
45.2638888889
 10
60.9493272569
 20
45.2291666667
 10
60.9542100694
 20
45.2025824653
 10
60.9590928819
 20
45.1841362847
 10
60.9634331597
 20
45.1732855903
 10
60.9786241319
 20
45.1629774306
 10
61.0073784722
 20
45.1597222222
 10
61.0073784722
 20
45.1597222222
 10
61.0496961806
 20
45.1640625
 10
61.0941840278
 20
45.1765407986
 10
61.1408420139
 20
45.1971571181
 10
61.1902126736
 20
45.2264539931
 10
61.2347005208
 20
45.2590060764
 10
61.2661675347
 20
45.2899305556
 10
61.28515625
 20
45.3186848958
 10
61.2916666667
 20
45.3463541667
 10
61.2916666667
 20
45.3463541667
 10
61.28515625
 20
45.3637152778
 10
61.265625
 20
45.37890625
 10
61.2330729167
 20
45.3919270833
 10
61.1875
 20
45.4027777778
 10
61.1875
 20
45.4027777778
 10
61.1875
 20
45.4722222222
 10
61.1875
 20
45.4722222222
 10
61.6388888889
 20
45.4722222222
 10
61.6388888889
 20
45.4722222222
 10
61.6388888889
 20
45.4027777778
 10
61.6388888889
 20
45.4027777778
 10
61.6106770833
 20
45.3935546875
 10
61.5873480903
 20
45.3827039931
 10
61.5689019097
 20
45.3702256944
 10
61.5558810764
 20
45.3555772569
 10
61.5466579861
 20
45.3371310764
 10
61.5401475694
 20
45.3138020833
 10
61.5358072917
 20
45.2845052083
 10
61.5347222222
 20
45.2497829861
 10
61.5347222222
 20
45.2497829861
 10
61.5347222222
 20
43.1946614583
 10
61.5347222222
 20
43.1946614583
 10
61.5358072917
 20
43.1599392361
 10
61.5401475694
 20
43.1311848958
 10
61.5466579861
 20
43.1078559028
 10
61.5558810764
 20
43.0899522569
 10
61.5689019097
 20
43.0758463542
 10
61.5873480903
 20
43.0628255208
 10
61.6106770833
 20
43.0514322917
 10
61.6388888889
 20
43.0416666667
 10
61.6388888889
 20
43.0416666667
 10
61.6388888889
 20
42.9722222222
 10
61.6388888889
 20
42.9722222222
 10
61.1875
 20
42.9722222222
 10
61.1875
 20
42.9722222222
 10
61.1875
 20
43.0416666667
 10
61.1875
 20
43.0416666667
 10
61.2157118056
 20
43.0508897569
 10
61.2390407986
 20
43.0617404514
 10
61.2574869792
 20
43.07421875
 10
61.2705078125
 20
43.0888671875
 10
61.2797309028
 20
43.1073133681
 10
61.2862413194
 20
43.1311848958
 10
61.2905815972
 20
43.1610243056
 10
61.2916666667
 20
43.1957465278
 10
61.2916666667
 20
43.1957465278
 10
61.2916666667
 20
45.0284288194
  0
LINE
  5
8E
330
1F
100
AcDbEntity
  8
0
  6
Continuous
 62
     7
100
AcDbLine
 10
63.2361111111
 20
43.3541666667
 30
0.0
 11
63.2360577583
 21
43.3541666667
 31
0.0
  0
LWPOLYLINE
  5
8F
330
1F
100
AcDbEntity
  8
0
  6
Continuous
 62
     7
100
AcDbPolyline
 90
      249
 70
   128
 43
0.0
 10
64.3092393875
 20
44.7419704861
 10
63.9652777778
 20
45.1195746528
 10
63.9652777778
 20
45.1195746528
 10
64.0075954861
 20
45.1597222222
 10
64.0075954861
 20
45.1597222222
 10
64.0363498264
 20
45.1396484375
 10
64.0607638889
 20
45.125
 10
64.0808376736
 20
45.1163194444
 10
64.0965711806
 20
45.1136067708
 10
64.0965711806
 20
45.1136067708
 10
64.1128472222
 20
45.1184895833
 10
64.1405164931
 20
45.1336805556
 10
64.1795789931
 20
45.1586371528
 10
64.2300347222
 20
45.193359375
 10
64.2300347222
 20
45.193359375
 10
64.3472222222
 20
45.271484375
 10
64.4622395833
 20
45.3371310764
 10
64.5740017361
 20
45.3913845486
 10
64.68359375
 20
45.4337022569
 10
64.7942708333
 20
45.4657118056
 10
64.9098307292
 20
45.4884982639
 10
65.0297309028
 20
45.5026041667
 10
65.1545138889
 20
45.5069444444
 10
65.1545138889
 20
45.5069444444
 10
65.2603081597
 20
45.5036892361
 10
65.3606770833
 20
45.4939236111
 10
65.4567057292
 20
45.4776475694
 10
65.5478515625
 20
45.4548611111
 10
65.6341145833
 20
45.4250217014
 10
65.7154947917
 20
45.3892144097
 10
65.7925347222
 20
45.3463541667
 10
65.8641493056
 20
45.2975260417
 10
65.8641493056
 20
45.2975260417
 10
65.9205729167
 20
45.2508680556
 10
65.9699435764
 20
45.1993272569
 10
66.0133463542
 20
45.1434461806
 10
66.0502387153
 20
45.0826822917
 10
66.080078125
 20
45.0192057292
 10
66.1012369792
 20
44.9551866319
 10
66.1137152778
 20
44.8895399306
 10
66.1180555556
 20
44.8228081597
 10
66.1180555556
 20
44.8228081597
 10
66.1115451389
 20
44.7370876736
 10
66.0920138889
 20
44.6584201389
 10
66.0589192708
 20
44.5857204861
 10
66.0128038194
 20
44.5200737847
 10
65.9536675347
 20
44.4603949653
 10
65.8815104167
 20
44.4077690972
 10
65.7963324653
 20
44.3616536458
 10
65.6975911458
 20
44.3220486111
 10
65.6975911458
 20
44.3220486111
 10
65.7936197917
 20
44.2932942708
 10
65.8793402778
 20
44.2591145833
 10
65.9547526042
 20
44.2178819444
 10
66.0193142361
 20
44.1712239583
 10
66.0193142361
 20
44.1712239583
 10
66.0670572917
 20
44.1261935764
 10
66.1082899306
 20
44.0773654514
 10
66.1430121528
 20
44.0258246528
 10
66.1717664931
 20
43.9704861111
 10
66.1934678819
 20
43.9124348958
 10
66.2097439236
 20
43.8505859375
 10
66.2189670139
 20
43.7854817708
 10
66.2222222222
 20
43.7171223958
 10
66.2222222222
 20
43.7171223958
 10
66.2178819444
 20
43.6335720486
 10
66.2043185764
 20
43.5543619792
 10
66.1820746528
 20
43.4794921875
 10
66.1506076389
 20
43.4084201389
 10
66.1104600694
 20
43.3411458333
 10
66.0616319444
 20
43.2782118056
 10
66.0035807292
 20
43.2196180556
 10
65.9363064236
 20
43.1648220486
 10
65.9363064236
 20
43.1648220486
 10
65.8560112847
 20
43.1116536458
 10
65.7697482639
 20
43.0655381944
 10
65.6780598958
 20
43.0264756944
 10
65.5809461806
 20
42.9944661458
 10
65.4778645833
 20
42.9695095486
 10
65.3693576389
 20
42.9516059028
 10
65.2548828125
 20
42.9412977431
 10
65.1349826389
 20
42.9375
 10
65.1349826389
 20
42.9375
 10
65.0047743056
 20
42.9412977431
 10
64.8778211806
 20
42.9537760417
 10
64.7546657986
 20
42.9738498264
 10
64.6342230903
 20
43.0020616319
 10
64.5137803819
 20
43.0394965278
 10
64.3900824653
 20
43.0872395833
 10
64.2625868056
 20
43.1442057292
 10
64.1312934028
 20
43.2114800347
 10
64.1312934028
 20
43.2114800347
 10
64.1106770833
 20
43.2228732639
 10
64.0944010417
 20
43.23046875
 10
64.0813802083
 20
43.2353515625
 10
64.0721571181
 20
43.2369791667
 10
64.0721571181
 20
43.2369791667
 10
64.0531684028
 20
43.2337239583
 10
64.0314670139
 20
43.2228732639
 10
64.0070529514
 20
43.2055121528
 10
63.9799262153
 20
43.1805555556
 10
63.9799262153
 20
43.1805555556
 10
63.9305555556
 20
43.2082248264
 10
63.9305555556
 20
43.2082248264
 10
64.2061631944
 20
43.6514756944
 10
64.2061631944
 20
43.6514756944
 10
64.2571614583
 20
43.6221788194
 10
64.2571614583
 20
43.6221788194
 10
64.2419704861
 20
43.5804036458
 10
64.2365451389
 20
43.5505642361
 10
64.2365451389
 20
43.5505642361
 10
64.2403428819
 20
43.5315755208
 10
64.2522786458
 20
43.5098741319
 10
64.2718098958
 20
43.4865451389
 10
64.2989366319
 20
43.4610460069
 10
64.2989366319
 20
43.4610460069
 10
64.3814019097
 20
43.3986545139
 10
64.4736328125
 20
43.3438585069
 10
64.5756293403
 20
43.2955729167
 10
64.6873914931
 20
43.2548828125
 10
64.8062065972
 20
43.2223307292
 10
64.9282769097
 20
43.1990017361
 10
65.0536024306
 20
43.1854383681
 10
65.1821831597
 20
43.1805555556
 10
65.1821831597
 20
43.1805555556
 10
65.279296875
 20
43.1832682292
 10
65.3704427083
 20
43.19140625
 10
65.4561631944
 20
43.2049696181
 10
65.5364583333
 20
43.2239583333
 10
65.611328125
 20
43.2483723958
 10
65.6802300347
 20
43.2776692708
 10
65.7437065972
 20
43.3129340278
 10
65.8017578125
 20
43.3536241319
 10
65.8017578125
 20
43.3536241319
 10
65.8402777778
 20
43.3878038194
 10
65.875
 20
43.42578125
 10
65.9048394097
 20
43.4686414931
 10
65.9308810764
 20
43.5152994792
 10
65.9520399306
 20
43.5646701389
 10
65.9672309028
 20
43.6145833333
 10
65.9759114583
 20
43.6639539931
 10
65.9791666667
 20
43.7138671875
 10
65.9791666667
 20
43.7138671875
 10
65.9764539931
 20
43.7643229167
 10
65.9688585069
 20
43.8126085069
 10
65.9552951389
 20
43.8581814236
 10
65.9373914931
 20
43.9015842014
 10
65.9135199653
 20
43.9422743056
 10
65.884765625
 20
43.9802517361
 10
65.8505859375
 20
44.0160590278
 10
65.8109809028
 20
44.0491536458
 10
65.8109809028
 20
44.0491536458
 10
65.7621527778
 20
44.0817057292
 10
65.7068142361
 20
44.1099175347
 10
65.6449652778
 20
44.1332465278
 10
65.5771484375
 20
44.1527777778
 10
65.5028211806
 20
44.16796875
 10
65.4219835069
 20
44.1788194444
 10
65.3351779514
 20
44.1853298611
 10
65.2418619792
 20
44.1875
 10
65.2418619792
 20
44.1875
 10
64.9977213542
 20
44.1875
 10
64.9977213542
 20
44.1875
 10
64.9602864583
 20
44.1864149306
 10
64.9293619792
 20
44.1820746528
 10
64.9033203125
 20
44.1755642361
 10
64.8837890625
 20
44.1663411458
 10
64.8680555556
 20
44.1533203125
 10
64.8544921875
 20
44.1348741319
 10
64.8430989583
 20
44.1115451389
 10
64.8333333333
 20
44.0833333333
 10
64.8333333333
 20
44.0833333333
 10
64.7638888889
 20
44.0833333333
 10
64.7638888889
 20
44.0833333333
 10
64.7638888889
 20
44.5347222222
 10
64.7638888889
 20
44.5347222222
 10
64.8333333333
 20
44.5347222222
 10
64.8333333333
 20
44.5347222222
 10
64.8430989583
 20
44.5065104167
 10
64.8550347222
 20
44.4831814236
 10
64.8685980903
 20
44.4647352431
 10
64.8843315972
 20
44.4517144097
 10
64.9044053819
 20
44.4424913194
 10
64.9304470486
 20
44.4359809028
 10
64.9619140625
 20
44.431640625
 10
64.9993489583
 20
44.4305555556
 10
64.9993489583
 20
44.4305555556
 10
65.2044270833
 20
44.4305555556
 10
65.2044270833
 20
44.4305555556
 10
65.2982855903
 20
44.4321831597
 10
65.3818359375
 20
44.4359809028
 10
65.4539930556
 20
44.4430338542
 10
65.5152994792
 20
44.4522569444
 10
65.5700954861
 20
44.4658203125
 10
65.6216362847
 20
44.4837239583
 10
65.6704644097
 20
44.5059678819
 10
65.7165798611
 20
44.5325520833
 10
65.7165798611
 20
44.5325520833
 10
65.7534722222
 20
44.5591362847
 10
65.7860243056
 20
44.5884331597
 10
65.8131510417
 20
44.6199001736
 10
65.8353949653
 20
44.6540798611
 10
65.8527560764
 20
44.6898871528
 10
65.865234375
 20
44.7289496528
 10
65.8722873264
 20
44.7701822917
 10
65.875
 20
44.8135850694
 10
65.875
 20
44.8135850694
 10
65.8722873264
 20
44.8575303819
 10
65.8646918403
 20
44.8993055556
 10
65.8516710069
 20
44.9389105903
 10
65.8337673611
 20
44.9774305556
 10
65.8104383681
 20
45.0132378472
 10
65.7816840278
 20
45.0479600694
 10
65.748046875
 20
45.0805121528
 10
65.7095269097
 20
45.1108940972
 10
65.7095269097
 20
45.1108940972
 10
65.6547309028
 20
45.1467013889
 10
65.5961371528
 20
45.1776258681
 10
65.5337456597
 20
45.2042100694
 10
65.4670138889
 20
45.2259114583
 10
65.396484375
 20
45.2421875
 10
65.3216145833
 20
45.2541232639
 10
65.2429470486
 20
45.26171875
 10
65.1604817708
 20
45.2638888889
 10
65.1604817708
 20
45.2638888889
 10
65.0617404514
 20
45.2600911458
 10
64.9662543403
 20
45.2492404514
 10
64.8734809028
 20
45.2307942708
 10
64.7839626736
 20
45.2052951389
 10
64.6971571181
 20
45.1722005208
 10
64.6136067708
 20
45.1320529514
 10
64.5333116319
 20
45.0843098958
 10
64.4557291667
 20
45.0295138889
 10
64.4557291667
 20
45.0295138889
 10
64.4237196181
 20
45.0034722222
 10
64.3955078125
 20
44.978515625
 10
64.3721788194
 20
44.9557291667
 10
64.3526475694
 20
44.9345703125
 10
64.3379991319
 20
44.9144965278
 10
64.3271484375
 20
44.8960503472
 10
64.3206380208
 20
44.8797743056
 10
64.3184678819
 20
44.8645833333
 10
64.3184678819
 20
44.8645833333
 10
64.3206380208
 20
44.8515625
 10
64.3271484375
 20
44.8331163194
 10
64.3379991319
 20
44.8103298611
 10
64.3531901042
 20
44.7826605903
 10
64.3531901042
 20
44.7826605903
 10
64.3092447917
 20
44.7419704861
  0
CIRCLE
  5
E5
330
1F
100
AcDbEntity
  8
0
  6
Continuous
 62
     7
370
    25
100
AcDbCircle
 10
0.0
 20
70.0
 30
0.0
 40
1.500000000000006
  0
CIRCLE
  5
E6
330
1F
100
AcDbEntity
  8
0
  6
Continuous
 62
     7
370
    25
100
AcDbCircle
 10
110.0
 20
70.0
 30
0.0
 40
1.499999999999986
  0
CIRCLE
  5
E7
330
1F
100
AcDbEntity
  8
0
  6
Continuous
 62
     7
370
    25
100
AcDbCircle
 10
110.0
 20
0.0
 30
0.0
 40
1.499999999999986
  0
CIRCLE
  5
E8
330
1F
100
AcDbEntity
  8
0
  6
Continuous
 62
     7
370
    25
100
AcDbCircle
 10
0.0
 20
0.0
 30
0.0
 40
1.500000000000002
  0
LINE
  5
F2
330
1F
100
AcDbEntity
  8
0
  6
Continuous
 62
     7
370
    25
100
AcDbLine
 10
0.0
 20
7.5
 30
0.0
 11
15.0
 21
7.5
 31
0.0
  0
LINE
  5
F3
330
1F
100
AcDbEntity
  8
0
  6
Continuous
 62
     7
370
    25
100
AcDbLine
 10
17.0
 20
9.5
 30
0.0
 11
17.0
 21
15.5
 31
0.0
  0
LINE
  5
F4
330
1F
100
AcDbEntity
  8
0
  6
Continuous
 62
     7
370
    25
100
AcDbLine
 10
15.0
 20
17.5
 30
0.0
 11
0.0
 21
17.5
 31
0.0
  0
LINE
  5
F5
330
1F
100
AcDbEntity
  8
0
  6
Continuous
 62
     7
370
    25
100
AcDbLine
 10
68.886
 20
62.5
 30
0.0
 11
50.058
 21
62.5
 31
0.0
  0
LINE
  5
F6
330
1F
100
AcDbEntity
  8
0
  6
Continuous
 62
     7
370
    25
100
AcDbLine
 10
49.058
 20
61.5
 30
0.0
 11
49.058
 21
58.5
 31
0.0
  0
LINE
  5
F7
330
1F
100
AcDbEntity
  8
0
  6
Continuous
 62
     7
370
    25
100
AcDbLine
 10
50.058
 20
57.5
 30
0.0
 11
68.886
 21
57.5
 31
0.0
  0
LINE
  5
F8
330
1F
100
AcDbEntity
  8
0
  6
Continuous
 62
     7
370
    25
100
AcDbLine
 10
69.886
 20
58.5
 30
0.0
 11
69.886
 21
61.5
 31
0.0
  0
LINE
  5
F9
330
1F
100
AcDbEntity
  8
0
  6
Continuous
 62
     7
370
    25
100
AcDbLine
 10
46.858
 20
62.5
 30
0.0
 11
23.008
 21
62.5
 31
0.0
  0
LINE
  5
FA
330
1F
100
AcDbEntity
  8
0
  6
Continuous
 62
     7
370
    25
100
AcDbLine
 10
22.008
 20
61.5
 30
0.0
 11
22.008
 21
58.5
 31
0.0
  0
LINE
  5
FB
330
1F
100
AcDbEntity
  8
0
  6
Continuous
 62
     7
370
    25
100
AcDbLine
 10
23.008
 20
57.5
 30
0.0
 11
46.858
 21
57.5
 31
0.0
  0
LINE
  5
FC
330
1F
100
AcDbEntity
  8
0
  6
Continuous
 62
     7
370
    25
100
AcDbLine
 10
47.858
 20
58.5
 30
0.0
 11
47.858
 21
61.5
 31
0.0
  0
LINE
  5
FD
330
1F
100
AcDbEntity
  8
0
  6
Continuous
 62
     7
370
    25
100
AcDbLine
 10
29.562
 20
7.5
 30
0.0
 11
48.392
 21
7.5
 31
0.0
  0
LINE
  5
FE
330
1F
100
AcDbEntity
  8
0
  6
Continuous
 62
     7
370
    25
100
AcDbLine
 10
49.392
 20
8.5
 30
0.0
 11
49.392
 21
11.5
 31
0.0
  0
LINE
  5
FF
330
1F
100
AcDbEntity
  8
0
  6
Continuous
 62
     7
370
    25
100
AcDbLine
 10
48.392
 20
12.5
 30
0.0
 11
29.562
 21
12.5
 31
0.0
  0
LINE
  5
100
330
1F
100
AcDbEntity
  8
0
  6
Continuous
 62
     7
370
    25
100
AcDbLine
 10
28.562
 20
11.5
 30
0.0
 11
28.562
 21
8.5
 31
0.0
  0
LINE
  5
101
330
1F
100
AcDbEntity
  8
0
  6
Continuous
 62
     7
370
    25
100
AcDbLine
 10
51.592
 20
7.5
 30
0.0
 11
70.422
 21
7.5
 31
0.0
  0
LINE
  5
102
330
1F
100
AcDbEntity
  8
0
  6
Continuous
 62
     7
370
    25
100
AcDbLine
 10
71.422
 20
8.5
 30
0.0
 11
71.422
 21
11.5
 31
0.0
  0
LINE
  5
103
330
1F
100
AcDbEntity
  8
0
  6
Continuous
 62
     7
370
    25
100
AcDbLine
 10
70.422
 20
12.5
 30
0.0
 11
51.592
 21
12.5
 31
0.0
  0
LINE
  5
104
330
1F
100
AcDbEntity
  8
0
  6
Continuous
 62
     7
370
    25
100
AcDbLine
 10
50.592
 20
11.5
 30
0.0
 11
50.592
 21
8.5
 31
0.0
  0
LINE
  5
105
330
1F
100
AcDbEntity
  8
0
  6
Continuous
 62
     7
370
    25
100
AcDbLine
 10
21.0
 20
36.5
 30
0.0
 11
29.0
 21
36.5
 31
0.0
  0
LINE
  5
106
330
1F
100
AcDbEntity
  8
0
  6
Continuous
 62
     7
370
    25
100
AcDbLine
 10
31.0
 20
38.5
 30
0.0
 11
31.0
 21
46.5
 31
0.0
  0
LINE
  5
107
330
1F
100
AcDbEntity
  8
0
  6
Continuous
 62
     7
370
    25
100
AcDbLine
 10
29.0
 20
48.5
 30
0.0
 11
21.0
 21
48.5
 31
0.0
  0
LINE
  5
108
330
1F
100
AcDbEntity
  8
0
  6
Continuous
 62
     7
370
    25
100
AcDbLine
 10
19.0
 20
46.5
 30
0.0
 11
19.0
 21
38.5
 31
0.0
  0
LINE
  5
109
330
1F
100
AcDbEntity
  8
0
  6
Continuous
 62
     7
370
    25
100
AcDbLine
 10
90.914
 20
62.5
 30
0.0
 11
72.086
 21
62.5
 31
0.0
  0
LINE
  5
10A
330
1F
100
AcDbEntity
  8
0
  6
Continuous
 62
     7
370
    25
100
AcDbLine
 10
71.086
 20
61.5
 30
0.0
 11
71.086
 21
58.5
 31
0.0
  0
LINE
  5
10B
330
1F
100
AcDbEntity
  8
0
  6
Continuous
 62
     7
370
    25
100
AcDbLine
 10
72.086
 20
57.5
 30
0.0
 11
90.914
 21
57.5
 31
0.0
  0
LINE
  5
10C
330
1F
100
AcDbEntity
  8
0
  6
Continuous
 62
     7
370
    25
100
AcDbLine
 10
91.914
 20
58.5
 30
0.0
 11
91.914
 21
61.5
 31
0.0
  0
LINE
  5
10D
330
1F
100
AcDbEntity
  8
0
  6
Continuous
 62
     7
370
    25
100
AcDbLine
 10
100.0
 20
10.5
 30
0.0
 11
100.0
 21
59.5
 31
0.0
  0
LINE
  5
10E
330
1F
100
AcDbEntity
  8
0
  6
Continuous
 62
     7
370
    25
100
AcDbLine
 10
99.0
 20
60.5
 30
0.0
 11
96.0
 21
60.5
 31
0.0
  0
LINE
  5
10F
330
1F
100
AcDbEntity
  8
0
  6
Continuous
 62
     7
370
    25
100
AcDbLine
 10
95.0
 20
59.5
 30
0.0
 11
95.0
 21
10.5
 31
0.0
  0
LINE
  5
110
330
1F
100
AcDbEntity
  8
0
  6
Continuous
 62
     7
370
    25
100
AcDbLine
 10
96.0
 20
9.5
 30
0.0
 11
99.0
 21
9.5
 31
0.0
  0
LINE
  5
111
330
1F
100
AcDbEntity
  8
0
  6
Continuous
 62
     7
370
    25
100
AcDbLine
 10
73.622
 20
7.5
 30
0.0
 11
92.452
 21
7.5
 31
0.0
  0
LINE
  5
112
330
1F
100
AcDbEntity
  8
0
  6
Continuous
 62
     7
370
    25
100
AcDbLine
 10
93.452
 20
8.5
 30
0.0
 11
93.452
 21
11.5
 31
0.0
  0
LINE
  5
113
330
1F
100
AcDbEntity
  8
0
  6
Continuous
 62
     7
370
    25
100
AcDbLine
 10
92.452
 20
12.5
 30
0.0
 11
73.622
 21
12.5
 31
0.0
  0
LINE
  5
114
330
1F
100
AcDbEntity
  8
0
  6
Continuous
 62
     7
370
    25
100
AcDbLine
 10
72.622
 20
11.5
 30
0.0
 11
72.622
 21
8.5
 31
0.0
  0
LINE
  5
115
330
1F
100
AcDbEntity
  8
0
  6
Continuous
 62
     7
370
    25
100
AcDbLine
 10
1.5
 20
29.9
 30
0.0
 11
3.6
 21
29.9
 31
0.0
  0
LINE
  5
116
330
1F
100
AcDbEntity
  8
0
  6
Continuous
 62
     7
370
    25
100
AcDbLine
 10
3.6
 20
29.9
 30
0.0
 11
3.6
 21
40.1
 31
0.0
  0
LINE
  5
117
330
1F
100
AcDbEntity
  8
0
  6
Continuous
 62
     7
370
    25
100
AcDbLine
 10
3.6
 20
40.1
 30
0.0
 11
1.5
 21
40.1
 31
0.0
  0
LINE
  5
118
330
1F
100
AcDbEntity
  8
0
  6
Continuous
 62
     7
370
    25
100
AcDbLine
 10
1.5
 20
40.1
 30
0.0
 11
1.5
 21
29.9
 31
0.0
  0
LINE
  5
119
330
1F
100
AcDbEntity
  8
0
  6
Continuous
 62
     7
370
    25
100
AcDbLine
 10
106.4
 20
29.9
 30
0.0
 11
108.5
 21
29.9
 31
0.0
  0
LINE
  5
11A
330
1F
100
AcDbEntity
  8
0
  6
Continuous
 62
     7
370
    25
100
AcDbLine
 10
108.5
 20
29.9
 30
0.0
 11
108.5
 21
40.1
 31
0.0
  0
LINE
  5
11B
330
1F
100
AcDbEntity
  8
0
  6
Continuous
 62
     7
370
    25
100
AcDbLine
 10
108.5
 20
40.1
 30
0.0
 11
106.4
 21
40.1
 31
0.0
  0
LINE
  5
11C
330
1F
100
AcDbEntity
  8
0
  6
Continuous
 62
     7
370
    25
100
AcDbLine
 10
106.4
 20
40.1
 30
0.0
 11
106.4
 21
29.9
 31
0.0
  0
LINE
  5
11D
330
1F
100
AcDbEntity
  8
0
  6
Continuous
 62
     7
370
    25
100
AcDbLine
 10
49.9
 20
1.5
 30
0.0
 11
60.1
 21
1.5
 31
0.0
  0
LINE
  5
11E
330
1F
100
AcDbEntity
  8
0
  6
Continuous
 62
     7
370
    25
100
AcDbLine
 10
60.1
 20
1.5
 30
0.0
 11
60.1
 21
3.6
 31
0.0
  0
LINE
  5
11F
330
1F
100
AcDbEntity
  8
0
  6
Continuous
 62
     7
370
    25
100
AcDbLine
 10
60.1
 20
3.6
 30
0.0
 11
49.9
 21
3.6
 31
0.0
  0
LINE
  5
120
330
1F
100
AcDbEntity
  8
0
  6
Continuous
 62
     7
370
    25
100
AcDbLine
 10
49.9
 20
3.6
 30
0.0
 11
49.9
 21
1.5
 31
0.0
  0
LINE
  5
121
330
1F
100
AcDbEntity
  8
0
  6
Continuous
 62
     7
370
    25
100
AcDbLine
 10
49.9
 20
66.4
 30
0.0
 11
60.1
 21
66.4
 31
0.0
  0
LINE
  5
122
330
1F
100
AcDbEntity
  8
0
  6
Continuous
 62
     7
370
    25
100
AcDbLine
 10
60.1
 20
66.4
 30
0.0
 11
60.1
 21
68.5
 31
0.0
  0
LINE
  5
123
330
1F
100
AcDbEntity
  8
0
  6
Continuous
 62
     7
370
    25
100
AcDbLine
 10
60.1
 20
68.5
 30
0.0
 11
49.9
 21
68.5
 31
0.0
  0
LINE
  5
124
330
1F
100
AcDbEntity
  8
0
  6
Continuous
 62
     7
370
    25
100
AcDbLine
 10
49.9
 20
68.5
 30
0.0
 11
49.9
 21
66.4
 31
0.0
  0
LINE
  5
125
330
1F
100
AcDbEntity
  8
0
  6
Continuous
 62
     7
370
    25
100
AcDbLine
 10
106.5
 20
70.0
 30
0.0
 11
3.5
 21
70.0
 31
0.0
  0
LINE
  5
126
330
1F
100
AcDbEntity
  8
0
  6
Continuous
 62
     7
370
    25
100
AcDbLine
 10
110.0
 20
3.5
 30
0.0
 11
110.0
 21
66.5
 31
0.0
  0
LINE
  5
127
330
1F
100
AcDbEntity
  8
0
  6
Continuous
 62
     7
370
    25
100
AcDbLine
 10
3.5
 20
0.0
 30
0.0
 11
106.5
 21
0.0
 31
0.0
  0
LINE
  5
128
330
1F
100
AcDbEntity
  8
0
  6
Continuous
 62
     7
370
    25
100
AcDbLine
 10
0.0
 20
7.5
 30
0.0
 11
0.0
 21
3.5
 31
0.0
  0
LINE
  5
129
330
1F
100
AcDbEntity
  8
0
  6
Continuous
 62
     7
370
    25
100
AcDbLine
 10
0.0
 20
66.5
 30
0.0
 11
0.0
 21
17.5
 31
0.0
  0
ARC
  5
12A
330
1F
100
AcDbEntity
  8
0
  6
Continuous
 62
     7
370
    25
100
AcDbCircle
 10
15.0
 20
9.5
 30
0.0
 40
2.000000000000002
100
AcDbArc
 50
270.0
 51
0.0
  0
ARC
  5
12B
330
1F
100
AcDbEntity
  8
0
  6
Continuous
 62
     7
370
    25
100
AcDbCircle
 10
15.0
 20
15.5
 30
0.0
 40
1.999999999999998
100
AcDbArc
 50
0.0
 51
90.0
  0
ARC
  5
12C
330
1F
100
AcDbEntity
  8
0
  6
Continuous
 62
     7
370
    25
100
AcDbCircle
 10
50.058
 20
61.5
 30
0.0
 40
1.000000000000007
100
AcDbArc
 50
90.0
 51
180.0
  0
ARC
  5
12D
330
1F
100
AcDbEntity
  8
0
  6
Continuous
 62
     7
370
    25
100
AcDbCircle
 10
50.058
 20
58.5
 30
0.0
 40
0.9999999999999929
100
AcDbArc
 50
180.0
 51
270.0
  0
ARC
  5
12E
330
1F
100
AcDbEntity
  8
0
  6
Continuous
 62
     7
370
    25
100
AcDbCircle
 10
68.886
 20
58.5
 30
0.0
 40
1.000000000000028
100
AcDbArc
 50
270.0
 51
0.0
  0
ARC
  5
12F
330
1F
100
AcDbEntity
  8
0
  6
Continuous
 62
     7
370
    25
100
AcDbCircle
 10
68.886
 20
61.5
 30
0.0
 40
1.000000000000036
100
AcDbArc
 50
0.0
 51
90.0
  0
ARC
  5
130
330
1F
100
AcDbEntity
  8
0
  6
Continuous
 62
     7
370
    25
100
AcDbCircle
 10
23.008
 20
61.5
 30
0.0
 40
1.000000000000007
100
AcDbArc
 50
90.0
 51
180.0
  0
ARC
  5
131
330
1F
100
AcDbEntity
  8
0
  6
Continuous
 62
     7
370
    25
100
AcDbCircle
 10
23.008
 20
58.5
 30
0.0
 40
1.000000000000014
100
AcDbArc
 50
180.0
 51
270.0
  0
ARC
  5
132
330
1F
100
AcDbEntity
  8
0
  6
Continuous
 62
     7
370
    25
100
AcDbCircle
 10
46.858
 20
58.5
 30
0.0
 40
1.000000000000007
100
AcDbArc
 50
270.0
 51
0.0
  0
ARC
  5
133
330
1F
100
AcDbEntity
  8
0
  6
Continuous
 62
     7
370
    25
100
AcDbCircle
 10
46.858
 20
61.5
 30
0.0
 40
1.000000000000007
100
AcDbArc
 50
0.0
 51
90.0
  0
ARC
  5
134
330
1F
100
AcDbEntity
  8
0
  6
Continuous
 62
     7
370
    25
100
AcDbCircle
 10
48.392
 20
8.5
 30
0.0
 40
1.0
100
AcDbArc
 50
270.0
 51
0.0
  0
ARC
  5
135
330
1F
100
AcDbEntity
  8
0
  6
Continuous
 62
     7
370
    25
100
AcDbCircle
 10
48.392
 20
11.5
 30
0.0
 40
1.0
100
AcDbArc
 50
0.0
 51
90.0
  0
ARC
  5
136
330
1F
100
AcDbEntity
  8
0
  6
Continuous
 62
     7
370
    25
100
AcDbCircle
 10
29.562
 20
11.5
 30
0.0
 40
1.000000000000007
100
AcDbArc
 50
90.0
 51
180.0
  0
ARC
  5
137
330
1F
100
AcDbEntity
  8
0
  6
Continuous
 62
     7
370
    25
100
AcDbCircle
 10
29.562
 20
8.5
 30
0.0
 40
1.000000000000004
100
AcDbArc
 50
180.0
 51
270.0
  0
ARC
  5
138
330
1F
100
AcDbEntity
  8
0
  6
Continuous
 62
     7
370
    25
100
AcDbCircle
 10
70.422
 20
8.5
 30
0.0
 40
0.999999999999992
100
AcDbArc
 50
270.0
 51
0.0
  0
ARC
  5
139
330
1F
100
AcDbEntity
  8
0
  6
Continuous
 62
     7
370
    25
100
AcDbCircle
 10
70.422
 20
11.5
 30
0.0
 40
0.9999999999999911
100
AcDbArc
 50
0.0
 51
90.0
  0
ARC
  5
13A
330
1F
100
AcDbEntity
  8
0
  6
Continuous
 62
     7
370
    25
100
AcDbCircle
 10
51.592
 20
11.5
 30
0.0
 40
1.000000000000007
100
AcDbArc
 50
90.0
 51
180.0
  0
ARC
  5
13B
330
1F
100
AcDbEntity
  8
0
  6
Continuous
 62
     7
370
    25
100
AcDbCircle
 10
51.592
 20
8.5
 30
0.0
 40
1.000000000000007
100
AcDbArc
 50
180.0
 51
270.0
  0
ARC
  5
13C
330
1F
100
AcDbEntity
  8
0
  6
Continuous
 62
     7
370
    25
100
AcDbCircle
 10
29.0
 20
38.5
 30
0.0
 40
1.999999999999993
100
AcDbArc
 50
270.0
 51
0.0
  0
ARC
  5
13D
330
1F
100
AcDbEntity
  8
0
  6
Continuous
 62
     7
370
    25
100
AcDbCircle
 10
29.0
 20
46.5
 30
0.0
 40
2.0
100
AcDbArc
 50
0.0
 51
90.0
  0
ARC
  5
13E
330
1F
100
AcDbEntity
  8
0
  6
Continuous
 62
     7
370
    25
100
AcDbCircle
 10
21.0
 20
46.5
 30
0.0
 40
2.000000000000007
100
AcDbArc
 50
90.0
 51
180.0
  0
ARC
  5
13F
330
1F
100
AcDbEntity
  8
0
  6
Continuous
 62
     7
370
    25
100
AcDbCircle
 10
21.0
 20
38.5
 30
0.0
 40
1.999999999999993
100
AcDbArc
 50
180.0
 51
270.0
  0
ARC
  5
140
330
1F
100
AcDbEntity
  8
0
  6
Continuous
 62
     7
370
    25
100
AcDbCircle
 10
72.086
 20
61.5
 30
0.0
 40
1.000000000000007
100
AcDbArc
 50
90.0
 51
180.0
  0
ARC
  5
141
330
1F
100
AcDbEntity
  8
0
  6
Continuous
 62
     7
370
    25
100
AcDbCircle
 10
72.086
 20
58.5
 30
0.0
 40
1.0
100
AcDbArc
 50
180.0
 51
270.0
  0
ARC
  5
142
330
1F
100
AcDbEntity
  8
0
  6
Continuous
 62
     7
370
    25
100
AcDbCircle
 10
90.914
 20
58.5
 30
0.0
 40
1.000000000000028
100
AcDbArc
 50
270.0
 51
0.0
  0
ARC
  5
143
330
1F
100
AcDbEntity
  8
0
  6
Continuous
 62
     7
370
    25
100
AcDbCircle
 10
90.914
 20
61.5
 30
0.0
 40
1.000000000000028
100
AcDbArc
 50
0.0
 51
90.0
  0
ARC
  5
144
330
1F
100
AcDbEntity
  8
0
  6
Continuous
 62
     7
370
    25
100
AcDbCircle
 10
99.0
 20
59.5
 30
0.0
 40
1.000000000000021
100
AcDbArc
 50
0.0
 51
90.0
  0
ARC
  5
145
330
1F
100
AcDbEntity
  8
0
  6
Continuous
 62
     7
370
    25
100
AcDbCircle
 10
96.0
 20
59.5
 30
0.0
 40
1.000000000000021
100
AcDbArc
 50
90.0
 51
180.0
  0
ARC
  5
146
330
1F
100
AcDbEntity
  8
0
  6
Continuous
 62
     7
370
    25
100
AcDbCircle
 10
96.0
 20
10.5
 30
0.0
 40
1.000000000000028
100
AcDbArc
 50
180.0
 51
270.0
  0
ARC
  5
147
330
1F
100
AcDbEntity
  8
0
  6
Continuous
 62
     7
370
    25
100
AcDbCircle
 10
99.0
 20
10.5
 30
0.0
 40
0.9999999999999876
100
AcDbArc
 50
270.0
 51
0.0
  0
ARC
  5
148
330
1F
100
AcDbEntity
  8
0
  6
Continuous
 62
     7
370
    25
100
AcDbCircle
 10
92.452
 20
8.5
 30
0.0
 40
1.00000000000002
100
AcDbArc
 50
270.0
 51
0.0
  0
ARC
  5
149
330
1F
100
AcDbEntity
  8
0
  6
Continuous
 62
     7
370
    25
100
AcDbCircle
 10
92.452
 20
11.5
 30
0.0
 40
1.000000000000028
100
AcDbArc
 50
0.0
 51
90.0
  0
ARC
  5
14A
330
1F
100
AcDbEntity
  8
0
  6
Continuous
 62
     7
370
    25
100
AcDbCircle
 10
73.622
 20
11.5
 30
0.0
 40
1.000000000000018
100
AcDbArc
 50
90.0
 51
180.0
  0
ARC
  5
14B
330
1F
100
AcDbEntity
  8
0
  6
Continuous
 62
     7
370
    25
100
AcDbCircle
 10
73.622
 20
8.5
 30
0.0
 40
1.00000000000002
100
AcDbArc
 50
180.0
 51
270.0
  0
ARC
  5
14C
330
1F
100
AcDbEntity
  8
0
  6
Continuous
 62
     7
370
    25
100
AcDbCircle
 10
110.0
 20
70.0
 30
0.0
 40
3.5
100
AcDbArc
 50
270.0
 51
180.0
  0
ARC
  5
14D
330
1F
100
AcDbEntity
  8
0
  6
Continuous
 62
     7
370
    25
100
AcDbCircle
 10
110.0
 20
0.0
 30
0.0
 40
3.500000000000004
100
AcDbArc
 50
180.0
 51
90.0
  0
ARC
  5
14E
330
1F
100
AcDbEntity
  8
0
  6
Continuous
 62
     7
370
    25
100
AcDbCircle
 10
0.0
 20
0.0
 30
0.0
 40
3.500000000000012
100
AcDbArc
 50
90.0
 51
0.0
  0
ARC
  5
14F
330
1F
100
AcDbEntity
  8
0
  6
Continuous
 62
     7
370
    25
100
AcDbCircle
 10
0.0
 20
70.0
 30
0.0
 40
3.5
100
AcDbArc
 50
0.0
 51
270.0
  0
ENDSEC
  0
SECTION
  2
OBJECTS
  0
DICTIONARY
  5
C
330
0
100
AcDbDictionary
281
     1
  3
ACAD_GROUP
350
D
  3
ACAD_LAYOUT
350
1A
  3
ACAD_MLINESTYLE
350
17
  3
ACAD_PLOTSETTINGS
350
19
  3
ACAD_PLOTSTYLENAME
350
E
  3
ACAD_SCALELIST
350
47
  3
DWGPROPS
350
150
  0
DICTIONARY
  5
D
102
{ACAD_REACTORS
330
C
102
}
330
C
100
AcDbDictionary
281
     1
  0
DICTIONARY
  5
1A
102
{ACAD_REACTORS
330
C
102
}
330
C
100
AcDbDictionary
281
     1
  3
Layout1
350
1E
  3
Layout2
350
26
  3
Model
350
22
  0
DICTIONARY
  5
17
102
{ACAD_REACTORS
330
C
102
}
330
C
100
AcDbDictionary
281
     1
  3
Standard
350
18
  0
DICTIONARY
  5
19
102
{ACAD_REACTORS
330
C
102
}
330
C
100
AcDbDictionary
281
     1
  0
ACDBDICTIONARYWDFLT
  5
E
102
{ACAD_REACTORS
330
C
102
}
330
C
100
AcDbDictionary
281
     1
  3
Normal
350
F
100
AcDbDictionaryWithDefault
340
F
  0
DICTIONARY
  5
47
102
{ACAD_REACTORS
330
C
102
}
330
C
100
AcDbDictionary
281
     1
  3
A0
350
48
  3
A1
350
49
  3
A2
350
4A
  3
A3
350
4B
  3
A4
350
4C
  3
A5
350
4D
  3
A6
350
4E
  3
A7
350
4F
  3
A8
350
50
  3
A9
350
51
  3
B0
350
52
  3
B1
350
53
  3
B2
350
54
  3
B3
350
55
  3
B4
350
56
  3
B5
350
57
  3
B6
350
58
  3
B7
350
59
  3
B8
350
5A
  3
B9
350
5B
  3
C0
350
5C
  3
C1
350
5D
  3
C2
350
5E
  3
C3
350
5F
  3
C4
350
60
  3
C5
350
61
  3
C6
350
62
  3
C7
350
63
  3
C8
350
64
  3
C9
350
65
  3
D0
350
66
  3
D1
350
67
  3
D2
350
68
  0
XRECORD
  5
150
102
{ACAD_REACTORS
330
C
102
}
330
C
100
AcDbXrecord
280
     1
  1
DWGPROPS COOKIE
  2

  3

  4

  6

  7

  8
MSI
  9

300
=
301
=
302
=
303
=
304
=
305
=
306
=
307
=
308
=
309
=
 40
0.0
 41
2460090.056026053
 42
2460090.056123739
  1

 90
        0
  0
LAYOUT
  5
1E
102
{ACAD_REACTORS
330
1A
102
}
330
1A
100
AcDbPlotSettings
  1

  2
none_device
  4

  6

 40
0.0
 41
0.0
 42
0.0
 43
0.0
 44
0.0
 45
0.0
 46
0.0
 47
0.0
 48
0.0
 49
0.0
140
0.0
141
0.0
142
1.0
143
1.0
 70
   688
 72
     1
 73
     0
 74
     5
  7

 75
    16
147
1.0
148
0.0
149
0.0
100
AcDbLayout
  1
Layout1
 70
     1
 71
     1
 10
0.0
 20
0.0
 11
420.0
 21
297.0
 12
0.0
 22
0.0
 32
0.0
 14
1.0000000000E+20
 24
1.0000000000E+20
 34
1.0000000000E+20
 15
-1.0000000000E+20
 25
-1.0000000000E+20
 35
-1.0000000000E+20
146
0.0
 13
0.0
 23
0.0
 33
0.0
 16
1.0
 26
0.0
 36
0.0
 17
0.0
 27
1.0
 37
0.0
 76
     0
330
1B
  0
LAYOUT
  5
26
102
{ACAD_REACTORS
330
1A
102
}
330
1A
100
AcDbPlotSettings
  1

  2
none_device
  4

  6

 40
0.0
 41
0.0
 42
0.0
 43
0.0
 44
0.0
 45
0.0
 46
0.0
 47
0.0
 48
0.0
 49
0.0
140
0.0
141
0.0
142
1.0
143
1.0
 70
   688
 72
     1
 73
     0
 74
     5
  7

 75
    16
147
1.0
148
0.0
149
0.0
100
AcDbLayout
  1
Layout2
 70
     1
 71
     2
 10
0.0
 20
0.0
 11
0.0
 21
0.0
 12
0.0
 22
0.0
 32
0.0
 14
0.0
 24
0.0
 34
0.0
 15
0.0
 25
0.0
 35
0.0
146
0.0
 13
0.0
 23
0.0
 33
0.0
 16
1.0
 26
0.0
 36
0.0
 17
0.0
 27
1.0
 37
0.0
 76
     0
330
23
  0
LAYOUT
  5
22
102
{ACAD_REACTORS
330
1A
102
}
330
1A
100
AcDbPlotSettings
  1

  2
none_device
  4
ANSI_A_(11.00_x_8.50_Inches)
  6

 40
6.35
 41
19.05
 42
6.35000508
 43
19.05000254
 44
279.4
 45
215.9
 46
3.3215359215
 47
6.1546141146
 48
0.0
 49
0.0
140
0.0
141
0.0
142
0.0930769231
143
1.0
 70
  1696
 72
     0
 73
     0
 74
     0
  7

 75
     0
147
0.0179189148
148
-1300.4909072572
149
0.0
100
AcDbLayout
  1
Model
 70
     1
 71
     0
 10
0.0
 20
0.0
 11
420.0
 21
297.0
 12
0.0
 22
0.0
 32
0.0
 14
-3.5
 24
-3.5
 34
0.0
 15
113.5
 25
73.5
 35
0.0
146
0.0
 13
0.0
 23
0.0
 33
0.0
 16
1.0
 26
0.0
 36
0.0
 17
0.0
 27
1.0
 37
0.0
 76
     0
330
1F
331
29
  0
MLINESTYLE
  5
18
102
{ACAD_REACTORS
330
17
102
}
330
17
100
AcDbMlineStyle
  2
Standard
 70
     0
  3

 62
   256
 51
90.0
 52
90.0
 71
     2
 49
0.5
 62
   256
  6
BYLAYER
 49
-0.5
 62
   256
  6
BYLAYER
  0
ACDBPLACEHOLDER
  5
F
102
{ACAD_REACTORS
330
E
102
}
330
E
  0
SCALE
  5
48
102
{ACAD_REACTORS
330
47
102
}
330
47
100
AcDbScale
 70
     0
300
1:1
140
1.0
141
1.0
290
     1
  0
SCALE
  5
49
102
{ACAD_REACTORS
330
47
102
}
330
47
100
AcDbScale
 70
     0
300
1:2
140
1.0
141
2.0
290
     0
  0
SCALE
  5
4A
102
{ACAD_REACTORS
330
47
102
}
330
47
100
AcDbScale
 70
     0
300
1:4
140
1.0
141
4.0
290
     0
  0
SCALE
  5
4B
102
{ACAD_REACTORS
330
47
102
}
330
47
100
AcDbScale
 70
     0
300
1:5
140
1.0
141
5.0
290
     0
  0
SCALE
  5
4C
102
{ACAD_REACTORS
330
47
102
}
330
47
100
AcDbScale
 70
     0
300
1:8
140
1.0
141
8.0
290
     0
  0
SCALE
  5
4D
102
{ACAD_REACTORS
330
47
102
}
330
47
100
AcDbScale
 70
     0
300
1:10
140
1.0
141
10.0
290
     0
  0
SCALE
  5
4E
102
{ACAD_REACTORS
330
47
102
}
330
47
100
AcDbScale
 70
     0
300
1:16
140
1.0
141
16.0
290
     0
  0
SCALE
  5
4F
102
{ACAD_REACTORS
330
47
102
}
330
47
100
AcDbScale
 70
     0
300
1:20
140
1.0
141
20.0
290
     0
  0
SCALE
  5
50
102
{ACAD_REACTORS
330
47
102
}
330
47
100
AcDbScale
 70
     0
300
1:30
140
1.0
141
30.0
290
     0
  0
SCALE
  5
51
102
{ACAD_REACTORS
330
47
102
}
330
47
100
AcDbScale
 70
     0
300
1:40
140
1.0
141
40.0
290
     0
  0
SCALE
  5
52
102
{ACAD_REACTORS
330
47
102
}
330
47
100
AcDbScale
 70
     0
300
1:50
140
1.0
141
50.0
290
     0
  0
SCALE
  5
53
102
{ACAD_REACTORS
330
47
102
}
330
47
100
AcDbScale
 70
     0
300
1:100
140
1.0
141
100.0
290
     0
  0
SCALE
  5
54
102
{ACAD_REACTORS
330
47
102
}
330
47
100
AcDbScale
 70
     0
300
2:1
140
2.0
141
1.0
290
     0
  0
SCALE
  5
55
102
{ACAD_REACTORS
330
47
102
}
330
47
100
AcDbScale
 70
     0
300
4:1
140
4.0
141
1.0
290
     0
  0
SCALE
  5
56
102
{ACAD_REACTORS
330
47
102
}
330
47
100
AcDbScale
 70
     0
300
8:1
140
8.0
141
1.0
290
     0
  0
SCALE
  5
57
102
{ACAD_REACTORS
330
47
102
}
330
47
100
AcDbScale
 70
     0
300
10:1
140
10.0
141
1.0
290
     0
  0
SCALE
  5
58
102
{ACAD_REACTORS
330
47
102
}
330
47
100
AcDbScale
 70
     0
300
100:1
140
100.0
141
1.0
290
     0
  0
SCALE
  5
59
102
{ACAD_REACTORS
330
47
102
}
330
47
100
AcDbScale
 70
     0
300
1/128" = 1'-0"
140
0.0078125
141
12.0
290
     0
  0
SCALE
  5
5A
102
{ACAD_REACTORS
330
47
102
}
330
47
100
AcDbScale
 70
     0
300
1/64" = 1'-0"
140
0.015625
141
12.0
290
     0
  0
SCALE
  5
5B
102
{ACAD_REACTORS
330
47
102
}
330
47
100
AcDbScale
 70
     0
300
1/32" = 1'-0"
140
0.03125
141
12.0
290
     0
  0
SCALE
  5
5C
102
{ACAD_REACTORS
330
47
102
}
330
47
100
AcDbScale
 70
     0
300
1/16" = 1'-0"
140
0.0625
141
12.0
290
     0
  0
SCALE
  5
5D
102
{ACAD_REACTORS
330
47
102
}
330
47
100
AcDbScale
 70
     0
300
3/32" = 1'-0"
140
0.09375
141
12.0
290
     0
  0
SCALE
  5
5E
102
{ACAD_REACTORS
330
47
102
}
330
47
100
AcDbScale
 70
     0
300
1/8" = 1'-0"
140
0.125
141
12.0
290
     0
  0
SCALE
  5
5F
102
{ACAD_REACTORS
330
47
102
}
330
47
100
AcDbScale
 70
     0
300
3/16" = 1'-0"
140
0.1875
141
12.0
290
     0
  0
SCALE
  5
60
102
{ACAD_REACTORS
330
47
102
}
330
47
100
AcDbScale
 70
     0
300
1/4" = 1'-0"
140
0.25
141
12.0
290
     0
  0
SCALE
  5
61
102
{ACAD_REACTORS
330
47
102
}
330
47
100
AcDbScale
 70
     0
300
3/8" = 1'-0"
140
0.375
141
12.0
290
     0
  0
SCALE
  5
62
102
{ACAD_REACTORS
330
47
102
}
330
47
100
AcDbScale
 70
     0
300
1/2" = 1'-0"
140
0.5
141
12.0
290
     0
  0
SCALE
  5
63
102
{ACAD_REACTORS
330
47
102
}
330
47
100
AcDbScale
 70
     0
300
3/4" = 1'-0"
140
0.75
141
12.0
290
     0
  0
SCALE
  5
64
102
{ACAD_REACTORS
330
47
102
}
330
47
100
AcDbScale
 70
     0
300
1" = 1'-0"
140
1.0
141
12.0
290
     0
  0
SCALE
  5
65
102
{ACAD_REACTORS
330
47
102
}
330
47
100
AcDbScale
 70
     0
300
1-1/2" = 1'-0"
140
1.5
141
12.0
290
     0
  0
SCALE
  5
66
102
{ACAD_REACTORS
330
47
102
}
330
47
100
AcDbScale
 70
     0
300
3" = 1'-0"
140
3.0
141
12.0
290
     0
  0
SCALE
  5
67
102
{ACAD_REACTORS
330
47
102
}
330
47
100
AcDbScale
 70
     0
300
6" = 1'-0"
140
6.0
141
12.0
290
     0
  0
SCALE
  5
68
102
{ACAD_REACTORS
330
47
102
}
330
47
100
AcDbScale
 70
     0
300
1'-0" = 1'-0"
140
12.0
141
12.0
290
     0
  0
ENDSEC
  0
EOF
